<?xml version="1.0" encoding="UTF-8" standalone="no"?>
<!-- Created with Inkscape (http://www.inkscape.org/) -->

<svg
   width="340mm"
   height="401mm"
   viewBox="0 0 340 401"
   version="1.1"
   id="svg1"
   xml:space="preserve"
   sodipodi:docname="mlclaw.svg"
   inkscape:version="1.4.4 (dcaf3e7, 2026-05-05)"
   xmlns:inkscape="http://www.inkscape.org/namespaces/inkscape"
   xmlns:sodipodi="http://sodipodi.sourceforge.net/DTD/sodipodi-0.dtd"
   xmlns="http://www.w3.org/2000/svg"
   xmlns:svg="http://www.w3.org/2000/svg"><sodipodi:namedview
     id="namedview1"
     pagecolor="#ffffff"
     bordercolor="#000000"
     borderopacity="0.25"
     inkscape:showpageshadow="2"
     inkscape:pageopacity="0.0"
     inkscape:pagecheckerboard="0"
     inkscape:deskcolor="#d1d1d1"
     inkscape:document-units="mm"
     inkscape:zoom="0.34690004"
     inkscape:cx="505.90942"
     inkscape:cy="614.00973"
     inkscape:window-width="1512"
     inkscape:window-height="855"
     inkscape:window-x="0"
     inkscape:window-y="33"
     inkscape:window-maximized="0"
     inkscape:current-layer="layer1" /><defs
     id="defs1" /><g
     inkscape:label="Layer 1"
     inkscape:groupmode="layer"
     id="layer1"
     transform="translate(35.873987,582.7748)"><g
       id="g149"
       transform="translate(1.571576,1.0366197)"><path
         id="path75"
         style="fill:none;fill-opacity:1;stroke:#efefef;stroke-width:30;stroke-linecap:round;stroke-linejoin:round;stroke-dasharray:none;stroke-opacity:1;paint-order:stroke markers fill"
         d="m 143.65015,-567.27287 c -6.10949,-0.53685 -21.16463,-0.52619 -26.63455,0.0191 -25.751611,2.56736 -48.932784,10.91002 -69.565783,25.03568 -16.211639,11.09873 -31.928391,27.43412 -42.4640748,44.13581 -13.5243548,21.43948 -21.3547302,44.38836 -24.9168252,73.025 -0.909481,7.31129 -0.915307,31.0472 -0.0093,38.27673 2.643549,21.09441 7.771404,39.05448 16.4873658,57.74842 3.06929614,6.583 3.06262517,6.06166 0.1049032,8.17573 -7.407213,5.29438 -13.121878,16.23669 -14.596008,27.94816 -0.646859,5.13908 -0.245164,14.12459 0.861963,19.27893 3.339929,15.54937 11.5538263,29.84189 24.0765661,41.8946 17.3122189,16.66241 39.9284299,26.7536 62.9253579,28.07632 4.490824,0.2583 8.022608,-0.14154 11.576038,-1.31051 1.225068,-0.40302 2.317883,-0.64215 2.428792,-0.53124 0.394067,0.39406 4.34672,-2.71893 5.73195,-4.51445 2.309005,-2.9929 4.017572,-7.85101 3.135209,-8.91419 -0.567778,-0.68413 0.02375,-1.8506 1.052132,-2.0748 0.520645,-0.11351 1.406859,-0.3517 1.969389,-0.52969 1.415836,-0.44797 1.782643,-0.41169 1.331185,0.13229 -0.20819,0.25085 0.770212,-0.10634 2.174544,-0.79375 1.404336,-0.68742 2.414956,-1.34697 2.245856,-1.46554 -0.34448,-0.24155 1.46702,-1.79637 1.8309,-1.57148 0.12753,0.0788 1.05772,-0.96389 2.06705,-2.31717 3.22195,-4.31992 4.13412,-9.63011 2.50631,-14.58877 l -0.75603,-2.30374 2.00298,-2.10013 c 2.02317,-2.12109 3.42287,-4.64638 4.14962,-7.47603 h 33.03054 c -0.76009,4.88431 0.81479,9.6823 4.58939,13.54336 l 1.97507,2.02055 -0.64699,1.33118 c -0.96823,1.99191 -1.12585,5.91925 -0.35657,8.88525 0.35065,1.35194 0.75572,2.42755 0.89969,2.39055 0.14398,-0.037 0.87453,0.8056 1.62367,1.87275 1.81488,2.5853 5.21659,5.12822 7.79074,5.82394 3.59104,0.97054 3.75392,1.12333 3.9796,3.73104 0.57834,6.68271 6.41894,11.95645 14.37794,12.98267 14.24466,1.83667 37.24352,-4.24704 54.30986,-14.36605 9.01104,-5.34284 15.15915,-10.18588 22.32577,-17.58704 8.74431,-9.03049 14.5337,-18.07213 18.59215,-29.03699 5.90605,-15.95657 6.1935,-31.241 0.81752,-43.45264 -2.39446,-5.43906 -5.78333,-9.80619 -10.9306,-14.087 l -1.90789,-1.58698 2.57141,-5.27358 c 5.62052,-11.52782 9.36561,-21.20637 12.52069,-32.35668 12.34302,-43.62113 8.81547,-83.51604 -10.92492,-123.55319 -5.48868,-11.13205 -11.00411,-19.79025 -18.72547,-29.39665 -6.52404,-8.11678 -16.24281,-17.66295 -24.66464,-24.22695 -23.15017,-18.04332 -49.64977,-28.16131 -80.9625,-30.91284 z" /><g
         id="g126"><g
           id="g75"><path
             id="path46"
             style="fill:#fed122;fill-opacity:1"
             d="m 143.65015,-567.27287 c -6.10949,-0.53685 -21.16463,-0.52619 -26.63455,0.0191 -25.751611,2.56736 -48.932784,10.91002 -69.565783,25.03568 -16.211639,11.09873 -31.928391,27.43412 -42.4640748,44.13581 -13.5243548,21.43948 -21.3547302,44.38836 -24.9168252,73.025 -0.909481,7.31129 -0.915307,31.0472 -0.0093,38.27673 2.643549,21.09441 7.771404,39.05448 16.4873658,57.74842 3.06929614,6.583 3.06262517,6.06166 0.1049032,8.17573 -7.407213,5.29438 -13.121878,16.23669 -14.596008,27.94816 -0.646859,5.13908 -0.245164,14.12459 0.861963,19.27893 3.339929,15.54937 11.5538263,29.84189 24.0765661,41.8946 17.3122189,16.66241 39.9284299,26.7536 62.9253579,28.07632 4.490824,0.2583 8.022608,-0.14154 11.576038,-1.31051 1.225068,-0.40302 2.317883,-0.64215 2.428792,-0.53124 0.394067,0.39406 4.34672,-2.71893 5.73195,-4.51445 2.309005,-2.9929 4.017572,-7.85101 3.135209,-8.91419 -0.567778,-0.68413 0.02375,-1.8506 1.052132,-2.0748 0.520645,-0.11351 1.406859,-0.3517 1.969389,-0.52969 1.415836,-0.44797 1.782643,-0.41169 1.331185,0.13229 -0.20819,0.25085 0.770212,-0.10634 2.174544,-0.79375 1.404336,-0.68742 2.414956,-1.34697 2.245856,-1.46554 -0.34448,-0.24155 1.46702,-1.79637 1.8309,-1.57148 0.12753,0.0788 1.05772,-0.96389 2.06705,-2.31717 3.22195,-4.31992 4.13412,-9.63011 2.50631,-14.58877 l -0.75603,-2.30374 2.00298,-2.10013 c 2.02317,-2.12109 3.42287,-4.64638 4.14962,-7.47603 h 33.03054 c -0.76009,4.88431 0.81479,9.6823 4.58939,13.54336 l 1.97507,2.02055 -0.64699,1.33118 c -0.96823,1.99191 -1.12585,5.91925 -0.35657,8.88525 0.35065,1.35194 0.75572,2.42755 0.89969,2.39055 0.14398,-0.037 0.87453,0.8056 1.62367,1.87275 1.81488,2.5853 5.21659,5.12822 7.79074,5.82394 3.59104,0.97054 3.75392,1.12333 3.9796,3.73104 0.57834,6.68271 6.41894,11.95645 14.37794,12.98267 14.24466,1.83667 37.24352,-4.24704 54.30986,-14.36605 9.01104,-5.34284 15.15915,-10.18588 22.32577,-17.58704 8.74431,-9.03049 14.5337,-18.07213 18.59215,-29.03699 5.90605,-15.95657 6.1935,-31.241 0.81752,-43.45264 -2.39446,-5.43906 -5.78333,-9.80619 -10.9306,-14.087 l -1.90789,-1.58698 2.57141,-5.27358 c 5.62052,-11.52782 9.36561,-21.20637 12.52069,-32.35668 12.34302,-43.62113 8.81547,-83.51604 -10.92492,-123.55319 -5.48868,-11.13205 -11.00411,-19.79025 -18.72547,-29.39665 -6.52404,-8.11678 -16.24281,-17.66295 -24.66464,-24.22695 -23.15017,-18.04332 -49.64977,-28.16131 -80.9625,-30.91284 z" /><path
             id="path31"
             style="fill:#fb9e03"
             d="m 143.65023,-567.27338 5.2e-4,5.1e-4 c -6.10949,-0.53685 -21.16515,-0.52609 -26.63507,0.0191 -25.751613,2.56736 -48.932748,10.91002 -69.565745,25.03568 -16.211641,11.09873 -31.928362,27.43412 -42.464046,44.13581 -13.5243533,21.43948 -21.354727,44.38836 -24.916817,73.025 -0.909387,7.31129 -0.913467,31.0472 -0.009,38.27673 2.64355,21.09441 7.770877,39.05448 16.4868404,57.74842 3.06928997,6.583 3.06262997,6.06166 0.1049,8.17573 -7.4072134,5.29438 -13.1218704,16.23669 -14.5960004,27.94816 -0.64686,5.13908 -0.24465,14.12459 0.86248,19.27893 3.339927,15.54937 11.5532937,29.84189 24.0760338,41.8946 17.3122202,16.66241 39.9289182,26.7536 62.9258432,28.07632 4.490831,0.2583 8.022587,-0.14154 11.576024,-1.31051 1.22506,-0.40302 2.3179,-0.64215 2.4288,-0.53124 0.394071,0.39406 4.346717,-2.71893 5.731948,-4.51445 2.309006,-2.9929 4.017576,-7.85101 3.135206,-8.91419 -0.56777,-0.68413 0.0237,-1.8506 1.05213,-2.0748 0.52065,-0.11351 1.406861,-0.3517 1.969388,-0.52969 1.415819,-0.44797 1.782119,-0.41169 1.330659,0.13229 -0.20819,0.25085 0.77074,-0.10634 2.17507,-0.79375 1.404326,-0.68742 2.414946,-1.34697 2.245846,-1.46554 -0.34448,-0.24155 1.4665,-1.79637 1.83038,-1.57148 0.12753,0.0788 1.05773,-0.96389 2.06706,-2.31717 3.22195,-4.31992 4.13463,-9.63011 2.50682,-14.58877 l -0.75654,-2.30374 2.0035,-2.10013 c 2.39197,-2.50774 3.91204,-5.5804 4.47931,-9.05319 0.56349,-3.44957 0.0488,-6.19834 -1.87172,-9.99681 -1.25533,-2.4828 -1.92333,-3.33429 -3.94653,-5.0276 -2.59461,-2.17153 -5.46921,-3.69507 -8.765356,-4.64675 -2.25564,-0.65126 -2.44699,-1.05458 -1.21956,-2.5678 3.902736,-4.81142 4.707286,-12.44229 1.89652,-17.98908 -2.01272,-3.97191 -5.797517,-6.98206 -10.642754,-8.46357 -1.87451,-0.5732 -3.20636,-0.63421 -11.641654,-0.53691 -10.878794,0.12554 -14.597181,-0.26168 -20.130548,-2.09652 -2.37964,-0.78907 -3.54403,-1.36754 -3.925856,-1.95027 -0.34372,-0.52458 -0.88582,-0.82889 -1.477941,-0.82889 -1.15083,0 -3.984826,-1.63831 -10.575574,-6.11435 -7.955767,-5.40307 -13.058574,-7.69386 -21.256578,-9.54205 -0.18483,-0.0417 -0.45379,-0.21938 -0.78393,-0.50643 -0.0455,-4.3e-4 -0.0909,-10e-4 -0.13642,-0.002 -0.2342,-0.004 -0.46843,-0.0108 -0.70125,-0.0388 -0.2017,-0.027 -0.40261,-0.0631 -0.59893,-0.11575 -0.39118,0.35698 -3.502577,0.0769 -4.039027,-0.36691 -0.74906,-0.61963 -6.2127262,-12.45251 -8.584483,-18.59163 -6.5795766,-17.03075 -9.8261866,-30.8381 -11.2453033,-47.8224 -0.56264,-6.73375 -0.24559,-26.29224 0.52606,-32.43471 3.6081867,-28.7216 13.5882401,-53.99835 29.7480403,-75.34424 6.677517,-8.82049 17.519182,-19.54762 26.306385,-26.0289 12.587125,-9.28401 22.973179,-14.67977 37.811109,-19.64377 21.9141,-7.33133 45.85291,-8.78533 68.96788,-4.18837 27.49125,5.46729 51.0548,17.74555 70.68406,36.83083 7.81633,7.59972 14.30258,15.55672 20.01015,24.54785 9.90518,15.60362 16.79946,32.84844 20.58067,51.47955 7.1788,35.37203 1.69045,71.27248 -16.27343,106.45035 l -2.6572,5.20381 h -2.57504 c -1.41635,0 -2.82624,0.0962 -3.13315,0.21394 -0.5647,0.2167 -0.68038,-0.009 -0.39067,-0.56327 h -0.3824 c -0.2015,0.0947 -0.40537,0.18392 -0.61444,0.2651 -0.2159,0.0709 -0.43295,0.13755 -0.65216,0.19637 -0.0392,0.0175 -0.0747,0.0293 -0.10645,0.0357 -0.0302,0.006 -0.073,0.0141 -0.12712,0.0238 -0.25325,0.0608 -0.50935,0.10972 -0.76895,0.14211 -0.11837,0.0179 -0.23695,0.0331 -0.35553,0.0455 -1.03105,0.16755 -2.55504,0.40868 -4.13619,0.65319 -8.35493,1.29197 -15.42904,4.09772 -22.86993,9.07076 -2.15364,1.43936 -4.0869,2.61689 -4.29689,2.61689 -0.20998,0 -0.72622,0.48281 -1.1467,1.07332 -1.15871,1.62726 -7.79545,6.15944 -12.15947,8.30337 -6.22392,3.05764 -10.97857,4.10462 -22.40121,4.93148 -7.77922,0.56312 -12.92823,3.20743 -16.24862,8.34472 -1.86309,2.88257 -2.56948,5.79456 -2.39107,9.85831 0.12238,2.78748 0.31773,3.66632 1.26969,5.69939 0.61907,1.32213 1.8594,3.26294 2.75642,4.31292 l 1.63142,1.90892 -1.0051,0.41187 c -6.40857,2.62234 -9.57036,5.15158 -11.61842,9.29555 -3.22181,6.51889 -2.12721,13.41434 2.95435,18.6123 l 1.97559,2.02055 -0.64699,1.33119 c -0.96823,1.99191 -1.12637,5.91924 -0.35709,8.88524 0.35065,1.35194 0.75624,2.42755 0.90021,2.39055 0.14398,-0.037 0.87401,0.80561 1.62315,1.87276 1.81488,2.5853 5.21659,5.12821 7.79074,5.82393 3.59104,0.97054 3.75341,1.12333 3.97909,3.73104 0.57834,6.68271 6.41945,11.95645 14.37845,12.98267 14.24466,1.83667 37.24352,-4.24704 54.30987,-14.36605 9.01104,-5.34284 15.15916,-10.18588 22.32578,-17.58704 8.74431,-9.03049 14.53371,-18.07213 18.59216,-29.03699 5.90605,-15.95657 6.1935,-31.241 0.81752,-43.45264 -2.39446,-5.43906 -5.78282,-9.80619 -10.93009,-14.087 l -1.90841,-1.58698 2.57142,-5.27358 c 5.62052,-11.52782 9.36561,-21.20637 12.52069,-32.35668 12.34302,-43.62113 8.81547,-83.51603 -10.92492,-123.55318 -5.48868,-11.13205 -11.00412,-19.79026 -18.72548,-29.39666 -6.52404,-8.11678 -16.24231,-17.66294 -24.66415,-24.22694 -23.14988,-18.04312 -49.65023,-28.16119 -80.9625,-30.91284 z m 81.67099,108.21458 c -0.63202,-0.002 -1.27671,0.0408 -1.93167,0.13332 -6.26657,0.88577 -10.74629,5.90773 -11.21172,12.56823 -0.46528,6.65828 4.22652,12.54354 10.77351,13.5139 2.00294,0.29686 2.51013,0.28167 5.16971,-0.15606 3.31964,-0.54636 7.11583,-3.47323 8.79016,-6.77736 4.51432,-8.90858 -2.10971,-19.24527 -11.58999,-19.28203 z m -190.1713,8.66459 c -5.669637,0.0293 -10.352624,3.52112 -12.174964,9.18858 -2.279796,7.09018 1.87678,14.61356 9.206158,16.66255 5.026007,1.40506 11.02761,-0.93211 14.06166,-5.47563 2.614277,-3.91492 2.919017,-9.25271 0.75965,-13.3041 -2.24012,-4.20288 -6.004607,-6.67555 -10.705804,-7.0311 -0.38619,-0.0292 -0.76872,-0.0423 -1.1467,-0.0403 z m -24.172674,76.28371 c -0.0858,0.0263 -0.17054,0.0571 -0.25373,0.093 -0.12258,0.0538 -0.19079,0.0822 -0.22427,0.094 -0.0322,0.043 -0.0638,0.0861 -0.0951,0.12971 0.11909,-0.0778 0.24165,-0.14892 0.36794,-0.21446 0.0689,-0.0357 0.13713,-0.0706 0.20515,-0.10232 z m -0.36276,0.0961 c -0.007,9.3e-4 -0.0267,0.008 -0.0641,0.0233 -0.0104,0.0136 -0.0207,0.0272 -0.031,0.0408 0.0394,-0.024 0.0904,-0.0532 0.0971,-0.0615 l 5.2e-4,-5.1e-4 v -5.2e-4 -5.2e-4 -5.1e-4 h -5.2e-4 -5.1e-4 l -5.2e-4,-5.2e-4 h -5.2e-4 z m 232.604874,1.7477 c -0.0695,0.006 -0.14762,0.0183 -0.23512,0.0377 v 0.22324 c 0.0795,-0.0883 0.15784,-0.17543 0.23512,-0.26096 z m 0.51625,56.66114 c 6.90773,0.22257 12.9911,2.55594 17.39688,6.92671 5.82836,5.78204 8.44156,13.72435 8.01347,24.3551 -0.42598,10.57857 -4.10759,21.16592 -10.97867,31.5712 -11.64634,17.63674 -31.70322,31.81945 -54.14296,38.28603 -5.83215,1.68068 -10.97785,2.75117 -14.5185,3.02049 -1.45207,0.11046 -3.19611,0.24943 -3.87521,0.30903 -1.65966,0.14553 -5.1668,-0.27103 -6.77323,-0.80461 -1.54475,-0.5131 -3.45716,-2.55239 -3.45716,-3.68659 0,-1.43486 0.78226,-2.00396 3.53467,-2.5709 8.14891,-1.6785 20.52503,-7.21459 22.9123,-10.24951 1.63189,-2.07461 0.30612,-5.05034 -2.24999,-5.05034 -0.67921,0 -2.63076,0.61441 -4.33721,1.36478 -9.19987,4.04544 -15.1118,5.61427 -22.35574,5.93297 -5.83131,0.25655 -7.75743,-0.119 -9.86606,-1.92391 -2.42087,-2.07217 -3.07186,-4.53284 -1.7663,-6.67401 0.93922,-1.54035 1.33365,-1.69863 6.36705,-2.54869 8.07248,-1.36332 15.24551,-3.94233 21.11499,-7.5923 3.59808,-2.23748 4.5979,-3.56498 3.95635,-5.25239 -0.40474,-1.06453 -2.0095,-2.35645 -2.92747,-2.35645 -0.38051,0 -2.54302,0.78405 -4.80539,1.74202 -7.85951,3.32803 -14.58174,5.13351 -20.6804,5.5547 -3.15252,0.21772 -5.0927,-0.17197 -6.92309,-1.39113 -2.37948,-1.5849 -3.15646,-5.05382 -1.81229,-8.09253 1.35861,-3.07136 4.48812,-4.79739 12.61163,-6.95513 9.43033,-2.50484 16.08177,-5.12705 17.2558,-6.80321 0.83129,-1.18683 0.70087,-2.84411 -0.29766,-3.78219 -0.82553,-0.77554 -0.99452,-0.79285 -5.38003,-0.55966 -6.98177,0.37123 -10.76527,-0.4668 -13.68495,-3.03031 -4.62532,-4.06108 -2.90455,-11.47122 3.05769,-13.1687 1.02666,-0.2923 4.40621,-0.69673 7.51065,-0.89865 7.96685,-0.51817 11.14564,-1.08371 17.28629,-3.07475 5.52907,-1.79275 10.72774,-4.80556 18.58026,-10.76782 5.48483,-4.16453 8.87215,-6.27126 12.85193,-7.99331 5.27104,-2.28078 10.48749,-3.5399 15.37374,-3.80184 1.01797,-0.0546 2.02179,-0.0659 3.00861,-0.0341 z m -227.967437,0.15916 c 7.589083,0.0309 11.84862,1.69585 22.455454,8.77621 7.738167,5.16546 11.447744,7.13232 16.585541,8.79326 7.170967,2.31848 14.281955,3.00687 23.855898,2.31045 6.601134,-0.48017 8.567234,-0.23515 11.125935,1.38752 2.105286,1.33514 3.061786,3.1835 3.051486,5.89731 -0.0238,6.28362 -5.825227,9.95717 -15.752001,9.97407 -3.341836,0.006 -3.663447,0.0689 -4.674127,0.91932 -1.5295,1.28703 -1.53586,3.23106 -0.015,4.51084 1.398841,1.17704 6.137987,2.67112 13.569711,4.27829 12.404544,2.68259 14.89113,3.568 17.20049,6.12418 1.42289,1.57497 1.84449,3.08242 1.59318,5.69784 -0.22468,2.33821 -1.57882,4.05651 -4.11551,5.22294 -1.717356,0.78968 -2.443206,0.90785 -5.506112,0.89555 -5.559697,-0.0224 -14.566935,-2.01247 -21.364578,-4.72064 -1.936211,-0.77139 -4.080101,-1.40302 -4.764567,-1.40302 -2.694461,0 -3.961301,3.35997 -2.100641,5.57124 1.12899,1.34173 7.760414,4.62915 12.531525,6.21254 4.328996,1.43666 9.431303,2.51785 14.03479,2.97398 3.509577,0.34774 4.261077,0.72932 5.267377,2.67529 0.70973,1.37248 0.36192,3.83298 -0.78703,5.56916 -3.556237,5.37385 -17.465761,4.90248 -32.795402,-1.11156 -5.529897,-2.16946 -5.962717,-2.26615 -7.232103,-1.60972 -1.856411,0.95999 -2.316011,2.99175 -1.118801,4.94285 1.571041,2.56034 11.543965,7.24955 19.864408,9.34 2.862991,0.71931 5.450507,1.511 5.750037,1.75959 0.30086,0.2497 0.54415,1.00397 0.54415,1.68516 0,1.73491 -2.01836,3.70619 -4.571287,4.46433 -3.969266,1.17875 -12.597834,0.52647 -20.714487,-1.56631 -15.825171,-4.08035 -31.579072,-13.10821 -43.355477,-24.84448 -4.9964562,-4.97943 -7.4053062,-7.86376 -10.6422329,-12.74238 -7.2214667,-10.88403 -10.6367334,-21.27799 -10.7037334,-32.57578 -0.0586,-9.8886 2.4960467,-17.41572 7.85584337,-23.14536 2.53237003,-2.70711 4.75230993,-4.17316 8.13180673,-5.37125 2.2257062,-0.78904 3.1184962,-0.90642 6.7954472,-0.89142 z" /><path
             style="fill:#dd2728"
             d="m 139.78136,-184.3021 c -2.24194,-0.62538 -4.61889,-2.0663 -6.34262,-3.84492 -0.66865,-0.68994 -1.30792,-1.25445 -1.4206,-1.25445 -0.11268,0 -1.05059,0.63546 -2.08424,1.41213 -4.15038,3.11853 -10.65645,3.74697 -15.13361,1.46178 -2.95826,-1.50992 -4.67861,-3.12966 -6.04307,-5.68966 -0.62239,-1.16772 -1.1825,-2.12313 -1.24469,-2.12313 -0.0622,0 -0.98722,0.40019 -2.05561,0.88932 -1.0684,0.48913 -3.22912,1.07685 -4.8016,1.30604 -7.441869,1.08466 -13.739784,-2.61592 -15.70273,-9.22675 -0.99292,-3.34397 -0.842658,-3.95172 1.350509,-5.46221 3.168761,-2.18241 6.501019,-7.31717 6.544237,-10.08418 0.01884,-1.20597 0.209613,-1.42307 2.762528,-3.14377 1.957436,-1.31933 4.346901,-2.5373 7.531446,-3.83896 0.66661,-0.27247 0.89255,-0.57584 0.77205,-1.03663 -0.10404,-0.39783 0.14474,-0.92072 0.63902,-1.34312 0.60985,-0.52118 0.69246,-0.54063 0.33509,-0.0789 -0.99478,1.28526 -0.22757,2.24127 3.48608,4.34395 6.29057,3.56176 13.42976,5.24065 21.96732,5.16596 2.86627,-0.0251 5.80315,-0.19887 6.52639,-0.3862 0.72325,-0.18734 2.2299,-0.44917 3.34813,-0.58186 1.11822,-0.13269 2.12016,-0.38207 2.22653,-0.55418 0.10637,-0.17211 1.41396,-1.09801 2.90576,-2.05754 3.35306,-2.15672 7.09628,-5.82787 6.52488,-6.39927 -0.28769,-0.28769 -0.65978,-0.19565 -1.39679,0.3455 -1.41059,1.03572 -7.79468,3.46223 -9.86254,3.74863 -0.94898,0.13143 -3.0559,0.46201 -4.68205,0.73462 -1.62614,0.27262 -4.13727,0.49567 -5.58028,0.49567 -6.69514,0 -17.18019,-2.58329 -20.70722,-5.1018 -2.29178,-1.63647 -2.9265,-1.80518 -3.82015,-1.01542 -0.44785,0.3958 -0.29882,0.0413 0.38185,-0.90831 2.48109,-3.46133 3.22085,-9.16894 1.7637,-13.60774 l -0.75623,-2.30363 2.00328,-2.10023 c 2.39197,-2.50774 3.91233,-5.5803 4.4796,-9.05309 0.56349,-3.44957 0.0488,-6.19873 -1.87176,-9.9972 -1.25533,-2.4828 -1.92349,-3.33389 -3.94669,-5.0272 -2.59461,-2.17153 -5.46902,-3.69552 -8.765167,-4.6472 -2.25564,-0.65126 -2.447028,-1.05415 -1.219599,-2.56737 2.986066,-3.68131 4.153236,-8.45461 3.284336,-13.43175 -1.12417,-6.4394 -5.300377,-10.95984 -12.030709,-13.02235 -1.787146,-0.54768 -3.269989,-0.64342 -9.525,-0.61499 -5.064955,0.023 -6.515618,-0.0446 -4.586111,-0.2137 4.245314,-0.37212 4.409722,-0.46481 4.409722,-2.48613 0,-0.93605 -0.144901,-1.79147 -0.322002,-1.90093 -0.526446,-0.32536 -0.04962,-6.51053 0.727731,-9.43987 l 0.721291,-2.71808 -1.004482,-1.41953 c -0.552465,-0.78074 -1.265476,-1.42292 -1.584468,-1.42706 -0.318992,-0.004 -1.719915,1.25697 -3.113161,2.80246 -3.611014,4.00563 -8.183828,7.34136 -12.779419,9.32223 -2.074912,0.89436 -4.218037,1.62699 -4.7625,1.62808 -0.544464,0.001 -1.585247,0.16729 -2.312851,0.36936 -4.13647,1.14875 1.909043,3.80403 11.200695,4.91951 3.50659,0.42097 4.637138,0.64656 3.351388,0.66875 -5.155944,0.089 -15.026054,-2.40494 -16.118865,-4.07278 -0.343714,-0.52458 -0.885872,-0.82848 -1.478,-0.82848 -1.150823,0 -3.984972,-1.63865 -10.575724,-6.11469 -7.955762,-5.40307 -13.058239,-7.69351 -21.256247,-9.5417 -0.892128,-0.20112 -3.736995,-3.56823 -6.026164,-7.1324 -3.018055,-4.69903 -5.6945163,-11.47678 -7.0213928,-17.78065 -1.0917557,-5.18684 -1.0957316,-13.04982 -0.00865,-17.10972 1.0684589,-3.99036 2.0697176,-5.78964 3.6895998,-6.63028 2.584656,-1.34132 4.381159,-0.009 12.511584,9.27611 0.832119,0.95034 1.178117,1.1391 1.502227,0.81957 0.325719,-0.32111 0.251157,-0.69012 -0.32919,-1.62914 -1.0675,-1.72725 -0.931434,-2.09024 0.173821,-0.46371 0.859402,1.26472 0.892778,1.45488 0.476659,2.71573 -0.382305,1.1584 -0.360918,1.58237 0.146903,2.91208 0.823829,2.15716 1.486179,2.63395 4.191273,3.01704 2.857456,0.40466 3.079974,0.52978 3.082468,1.73328 0.0059,2.87095 1.305998,4.88042 4.337595,6.70459 2.428375,1.4612 3.860793,1.55056 5.093604,0.31775 1.173549,-1.17355 1.18366,-2.63112 0.03038,-4.37932 -1.299711,-1.97017 -2.407991,-5.19884 -2.407991,-7.01501 0,-1.41349 -0.121583,-1.65762 -1.091514,-2.19163 -6.113753,-3.36604 -7.018633,-4.8785 -5.936778,-9.92302 l 0.380041,-1.77207 -2.555693,-3.80154 c -3.225723,-4.7982 -5.295715,-7.99558 -6.343743,-9.79877 -1.038513,-1.78681 -2.827622,-4.05694 -3.197311,-4.05694 -0.155358,0 -0.519308,0.43656 -0.808778,0.97014 -0.28947,0.53357 -0.532071,0.81139 -0.539115,0.61736 -0.03563,-0.98153 1.503235,-2.64657 3.224198,-3.48856 8.724329,-4.26841 23.579633,-1.53524 35.404746,6.514 10.944368,7.44972 19.17272,19.23753 22.811736,32.67973 1.070437,3.9541 1.126718,4.47983 1.143881,10.68511 0.01596,5.7692 -0.07879,6.89475 -0.816666,9.70139 -0.459095,1.74625 -1.292533,4.18914 -1.852084,5.42865 -1.244499,2.7568 -1.248711,2.95817 -0.09355,4.47266 1.147538,1.5045 1.478164,1.51532 1.975019,0.0647 0.215978,-0.63059 1.318347,-2.97216 2.449709,-5.20347 6.90895,-13.62613 20.685198,-23.98935 36.102848,-27.1585 9.64843,-1.98327 20.19824,-1.59261 29.04745,1.07561 1.87446,0.56519 3.59543,1.02943 3.82439,1.03164 0.22896,0.002 1.09761,-1.27468 1.93034,-2.83754 4.01146,-7.52871 10.78707,-13.20983 15.75475,-13.20983 1.6871,0 1.9982,0.12284 2.91784,1.1521 0.80296,0.89867 1.02939,1.4896 1.02939,2.68645 0,2.04836 -0.85539,3.06291 -3.95629,4.69238 -3.07996,1.61848 -6.66078,5.09156 -8.47912,8.22403 -0.72761,1.25344 -1.32292,2.47104 -1.32292,2.70576 0,0.23473 1.30969,1.28559 2.91042,2.33526 7.87589,5.16457 14.7048,13.04568 18.48319,21.33111 0.67092,1.47122 1.38471,2.55764 1.68041,2.55764 0.28272,0 0.86194,-0.48857 1.28713,-1.0857 l 0.77309,-1.0857 -1.77105,-3.41222 c -3.43851,-6.62488 -4.70525,-11.71377 -4.7132,-18.93444 -0.0221,-20.09157 12.90599,-39.30571 31.6463,-47.03359 1.34614,-0.5551 4.1136,-1.46547 6.14992,-2.02304 3.38689,-0.92738 4.18341,-1.01178 9.34685,-0.99043 4.62438,0.0191 6.14898,0.16046 8.43626,0.78208 2.90907,0.7906 5.37936,2.0281 6.22606,3.11895 0.47406,0.61076 0.46424,0.61162 -0.23229,0.0203 -0.39999,-0.33955 -0.96943,-0.61736 -1.26541,-0.61736 -0.32861,0 -1.47352,1.75138 -2.94036,4.49791 -1.32121,2.47386 -3.21658,5.76792 -4.21193,7.32014 -0.99534,1.55222 -2.39681,3.87755 -3.11436,5.16739 -1.29423,2.32644 -1.30044,2.35706 -0.77839,3.83671 1.35296,3.83471 0.37001,6.02523 -3.70708,8.26118 l -2.64584,1.45103 -0.18554,2.28351 c -0.18754,2.30815 -1.10244,4.78631 -2.4826,6.72456 -1.01851,1.43037 -0.98679,3.30275 0.0752,4.44013 0.7234,0.77474 1.05849,0.86915 2.63013,0.74104 2.76307,-0.22522 4.95935,-1.67602 5.94186,-3.92501 0.43649,-0.99916 0.89884,-2.36186 1.02744,-3.02822 0.35837,-1.85708 1.10363,-2.43718 3.47577,-2.70556 2.32565,-0.26312 2.98371,-0.75258 4.1319,-3.07327 0.61882,-1.25074 0.63939,-1.48871 0.18482,-2.1377 -0.73275,-1.04615 -0.64254,-1.60636 0.54683,-3.39551 0.58042,-0.87313 1.05599,-1.42592 1.05682,-1.22842 8.3e-4,0.19749 -0.4057,0.95834 -0.9034,1.69077 -0.9051,1.33197 -1.02266,2.36458 -0.29673,2.60625 0.21222,0.0707 2.27597,-1.99059 4.58611,-4.58053 5.16665,-5.79243 6.14856,-6.60196 8.00777,-6.60196 1.14333,0 1.61439,0.22643 2.56258,1.23181 3.3381,3.53941 4.90182,14.1329 3.38996,22.96537 -1.23265,7.20128 -4.2325,14.93355 -7.92583,20.42921 -2.24364,3.33853 -5.29595,6.87352 -6.06756,7.02705 -0.38806,0.0772 -2.81255,0.46621 -5.38777,0.86444 -8.35493,1.29197 -15.42872,4.09761 -22.86961,9.07065 -2.15364,1.43936 -4.08752,2.61703 -4.29751,2.61703 -0.20998,0 -0.72582,0.48314 -1.1463,1.07365 -1.56739,2.2012 -12.30334,8.99426 -15.86409,10.03784 -0.48507,0.14217 1.17443,-0.79726 3.68777,-2.08761 2.51334,-1.29035 5.37084,-2.94527 6.35,-3.67761 0.97916,-0.73233 2.5277,-1.87765 3.44121,-2.54515 1.69578,-1.23909 2.28263,-2.03814 1.79022,-2.43753 -0.15188,-0.12319 -1.14927,-0.59119 -2.21642,-1.04 -7.34583,-3.0894 -11.84807,-5.78754 -16.37613,-9.81403 -2.61545,-2.32574 -2.81848,-2.38562 -4.12638,-1.21701 l -1.12407,1.00435 0.58455,1.71554 c 0.32149,0.94354 0.99747,4.02643 1.50216,6.85085 0.81457,4.55858 0.89042,5.66028 0.67536,9.80962 -0.26771,5.16503 -0.36347,4.96469 2.05245,4.29385 0.7458,-0.20709 1.4312,-0.30133 1.52312,-0.20941 0.34689,0.3469 -6.22058,1.61835 -10.28745,1.99164 -2.32833,0.21371 -5.74192,0.53642 -7.58575,0.71713 -6.90066,0.67632 -11.69059,3.31939 -14.83651,8.18673 -1.86309,2.88257 -2.5693,5.79445 -2.39089,9.8582 0.12238,2.78748 0.31833,3.6667 1.27029,5.69977 0.61907,1.32213 1.8595,3.26294 2.75652,4.31292 l 1.63094,1.90903 -1.00563,0.4115 c -6.40857,2.62234 -9.56952,5.15147 -11.61758,9.29544 -3.22181,6.51889 -2.12727,13.41469 2.95429,18.61265 l 1.97518,2.02041 -0.64696,1.33098 c -0.96218,1.97946 -1.13261,5.98306 -0.374,8.7856 l 0.62359,2.30371 -1.72258,1.77217 c -0.94742,0.97469 -2.95289,2.64197 -4.4566,3.70506 -1.50372,1.06308 -2.73403,2.0419 -2.73403,2.17513 0,0.13324 1.15093,0.95145 2.55764,1.81823 3.15938,1.94677 7.57324,6.11011 9.43749,8.90184 3.43661,5.14637 4.02898,11.07531 1.59905,16.00475 -1.50394,3.05092 -3.61401,5.08849 -6.82804,6.59344 -2.00197,0.9374 -2.834,1.11806 -5.53142,1.20102 -2.05045,0.0631 -3.85811,-0.0929 -5.10367,-0.44034 z"
             id="path69" /><path
             style="fill:#dd2728"
             d="m 146.73669,-316.23798 c 0.42566,-0.29815 0.95249,-1.2052 1.17073,-2.01568 0.23438,-0.87041 0.94355,-2.02035 1.73251,-2.80931 1.10629,-1.10629 1.58125,-1.33571 2.76535,-1.33571 2.86615,0 4.35133,1.16257 5.01399,3.92486 0.67216,2.80189 2.9823,3.69762 4.81354,1.86638 0.80585,-0.80585 0.88806,-1.10984 0.709,-2.62171 -0.3966,-3.34863 -2.6237,-6.43771 -5.74087,-7.9628 -1.71211,-0.83766 -2.22278,-0.92303 -4.65017,-0.77745 -4.44011,0.26629 -7.10506,2.0002 -9.04593,5.8856 -1.10982,2.22174 -1.33234,3.34017 -0.89756,4.51134 0.68737,1.85157 2.53753,2.44948 4.12941,1.33448 z"
             id="path68" /><path
             style="fill:#dd2728"
             d="m 100.47924,-316.20748 c 0.4017,-0.28136 1.08407,-1.48165 1.51638,-2.6673 0.87721,-2.40583 2.18988,-3.52029 4.14908,-3.52259 2.67195,-0.003 4.47228,1.40921 5.26285,4.12866 0.58214,2.0025 1.22794,2.5728 2.91341,2.5728 1.38705,0 2.51945,-1.41139 2.51479,-3.13438 -0.009,-3.15337 -3.73903,-7.98185 -6.83696,-8.84921 -2.24863,-0.62958 -6.35485,-0.32283 -8.15265,0.60904 -4.246957,2.20136 -7.199076,8.76624 -4.811611,10.69999 0.990785,0.8025 2.434181,0.87079 3.444711,0.16299 z"
             id="path67" /><path
             style="fill:#dd2728"
             d="m 134.0399,-302.75342 c 2.23035,-0.64601 3.23503,-1.1732 4.82594,-2.53235 3.23777,-2.76611 3.82955,-4.71655 1.98938,-6.55672 -1.58664,-1.58665 -2.61831,-1.39132 -4.75373,0.90002 -2.0574,2.20762 -3.68941,3.00767 -6.13534,3.00767 -2.87408,0 -4.80848,-0.88273 -6.6449,-3.03228 -1.14708,-1.34267 -1.88392,-1.90661 -2.49115,-1.90661 -1.2559,0 -2.14381,0.5797 -2.78395,1.81758 -0.51902,1.00368 -0.51717,1.21434 0.0231,2.6289 0.64506,1.68909 3.15512,4.15568 5.04721,4.95982 3.91892,1.66556 6.95332,1.86389 10.92348,0.71397 z"
             id="path66" /><path
             style="fill:#dd2728"
             d="m 141.00447,-262.09439 c 1.74625,-0.20432 3.96875,-0.58496 4.93889,-0.84587 0.97014,-0.2609 2.48988,-0.57505 3.3772,-0.6981 1.08294,-0.15019 2.19888,-0.66373 3.39453,-1.56211 0.97966,-0.73611 2.99211,-1.87053 4.4721,-2.52094 1.47999,-0.65041 2.6909,-1.28148 2.6909,-1.40238 0,-0.1209 -0.54114,-0.74431 -1.20252,-1.38535 -1.16241,-1.12665 -1.24771,-1.1509 -2.55764,-0.72702 -0.74532,0.24118 -1.93961,0.73223 -2.65398,1.09122 -1.82191,0.91556 -7.57509,2.3676 -11.75392,2.96657 -6.8176,0.97719 -17.15857,0.48402 -22.5622,-1.076 -0.97871,-0.28256 -2.64045,-0.67548 -3.69275,-0.87317 -1.05231,-0.19769 -3.28938,-0.99332 -4.97126,-1.76807 -1.68188,-0.77475 -3.16246,-1.40863 -3.29018,-1.40863 -0.65296,0 -0.0384,0.76928 1.66342,2.08222 1.27507,0.98371 2.26126,2.14846 3.0125,3.55794 0.9401,1.76381 1.32405,2.153 2.42589,2.45901 0.71996,0.19996 1.60209,0.36444 1.96028,0.36553 0.3582,10e-4 1.50788,0.25099 2.55486,0.55535 4.70626,1.36815 15.65375,1.95504 22.19388,1.1898 z"
             id="path65" /><path
             style="fill:#dd2728"
             d="m 137.82947,-238.44348 c 4.84861,-0.5389 11.47073,-2.13145 11.46197,-2.75648 -0.002,-0.12992 -0.48596,-1.07786 -1.07587,-2.10652 -0.78036,-1.36078 -1.23596,-1.823 -1.67238,-1.69669 -1.87833,0.54362 -3.83845,0.93903 -7.3026,1.47315 -7.93998,1.22421 -19.62731,-0.19179 -26.43598,-3.20291 l -1.99703,-0.88318 -1.62813,1.53831 c -1.88439,1.78043 -1.85663,2.39172 0.14787,3.25618 4.10396,1.76987 13.09307,4.11449 17.21327,4.48971 3.03541,0.27643 8.26283,0.22477 11.28888,-0.11157 z"
             id="path30" /><path
             id="path29"
             style="fill:#b51d1c"
             d="m 239.80913,-395.74277 c -0.71636,0.0196 -1.50891,1.28281 -3.20807,4.46433 -1.32121,2.47386 -3.21679,5.76774 -4.21214,7.31996 -0.99534,1.55222 -2.39648,3.87781 -3.11403,5.16765 -1.29423,2.32644 -1.30081,2.35681 -0.77876,3.83646 1.35296,3.83471 0.37034,6.02504 -3.70675,8.26099 l -2.64583,1.45107 -0.18552,2.28359 c -0.18754,2.30815 -1.10238,4.7864 -2.48254,6.72465 -1.01854,1.43037 -0.98709,3.30266 0.0749,4.44004 0.7234,0.77474 1.05869,0.86915 2.63033,0.74104 2.76307,-0.22522 4.95925,-1.67584 5.94176,-3.92483 0.43649,-0.99916 0.89873,-2.36187 1.02733,-3.02823 0.35837,-1.85708 1.10361,-2.4374 3.47575,-2.70578 2.32565,-0.26312 2.98386,-0.75251 4.13205,-3.0732 0.61882,-1.25074 0.63957,-1.48835 0.185,-2.13734 -0.73275,-1.04615 -0.64263,-1.60651 0.54674,-3.39566 1.68785,-2.53903 1.21665,-5.4078 -1.0418,-6.34328 -0.59123,-0.2449 -1.07487,-0.6571 -1.07487,-0.91622 0,-0.25912 1.10992,-2.59248 2.46652,-5.18521 3.93686,-7.52415 4.77832,-11.01677 3.15226,-13.08396 -0.45253,-0.57531 -0.80711,-0.90633 -1.18236,-0.89607 z m -218.97526,4.19974 c -0.517804,0 -1.361157,2.06068 -1.361157,3.3259 0,2.17803 2.179649,7.26511 4.949569,11.55072 2.028971,3.13921 2.076075,3.56313 0.553971,4.99866 -1.084699,1.02301 -1.270206,1.42502 -1.270206,2.75022 0,1.09322 0.2731,1.95463 0.923974,2.91248 0.859402,1.26472 0.892576,1.45475 0.476457,2.7156 -0.382305,1.1584 -0.360543,1.58225 0.147278,2.91196 0.823829,2.15716 1.485864,2.63378 4.190958,3.01687 1.29286,0.18309 2.492461,0.42069 2.665471,0.52762 0.17301,0.10693 0.410863,1.00793 0.52865,2.00246 0.117788,0.99453 0.501826,2.30122 0.853694,2.9037 0.753261,1.28977 3.489762,3.34028 5.278748,3.95531 1.537273,0.52849 2.270187,0.36447 3.307292,-0.73948 1.042898,-1.11011 1.011507,-2.60353 -0.08992,-4.27313 -1.299711,-1.97017 -2.407605,-5.1989 -2.407605,-7.01507 0,-1.41349 -0.121992,-1.65759 -1.091923,-2.1916 -6.113753,-3.36604 -7.018444,-4.87839 -5.936589,-9.92291 l 0.379822,-1.77199 -2.5554,-3.80183 c -3.225723,-4.7982 -5.295771,-7.9957 -6.343799,-9.79889 -1.041086,-1.79124 -2.827708,-4.0566 -3.199288,-4.0566 z m 165.33306,65.86265 c -0.40246,-3e-4 -0.75179,0.27198 -1.28312,0.74673 l -1.12397,1.00407 0.58446,1.71566 c 0.32149,0.94354 0.99755,4.02632 1.50224,6.85074 0.81684,4.5713 0.89061,5.65368 0.67282,9.8547 l -0.24443,4.71909 1.35341,-0.25063 c 3.72522,-0.69015 10.94199,-4.04882 14.75931,-6.86883 0.97014,-0.71668 2.5116,-1.84915 3.42511,-2.51665 1.69582,-1.23909 2.28248,-2.03818 1.79007,-2.43757 -0.15188,-0.12319 -1.14925,-0.59092 -2.2164,-1.03973 -7.34583,-3.0894 -11.8482,-5.78738 -16.37626,-9.81387 -1.55292,-1.38091 -2.25502,-1.96327 -2.84324,-1.96371 z m -108.184093,1.17254 c -0.318992,-0.004 -1.719742,1.25692 -3.112988,2.80241 -3.611014,4.00563 -8.183991,7.34156 -12.779582,9.32243 -2.074912,0.89436 -4.218037,1.62681 -4.7625,1.62781 -0.544464,0.001 -1.585433,0.16741 -2.313037,0.36948 -4.166613,1.15712 1.96109,3.83244 11.200867,4.89015 5.55535,0.63599 9.687532,0.62152 11.90625,-0.0408 1.289166,-0.38485 1.322916,-0.43796 1.322916,-2.08153 0,-0.92763 -0.144843,-1.77569 -0.321944,-1.88515 -0.526446,-0.32536 -0.04975,-6.51091 0.727604,-9.44025 l 0.721403,-2.71767 -1.00459,-1.41955 c -0.552465,-0.78074 -1.265407,-1.4233 -1.584399,-1.4273 z m 29.210623,52.20353 c -0.65296,0 -0.0384,0.7691 1.66346,2.08204 1.27507,0.98371 2.2615,2.14896 3.01274,3.55844 0.9401,1.76381 1.32385,2.15276 2.42569,2.45877 0.71996,0.19996 1.60241,0.36435 1.9606,0.36535 0.3582,0.001 1.50791,0.25116 2.55489,0.55552 1.04698,0.30437 3.53183,0.76265 5.52214,1.01854 6.87868,0.88441 16.98661,0.56918 21.61057,-0.67437 0.97014,-0.2609 2.48973,-0.5751 3.37705,-0.69815 1.08294,-0.15019 2.19898,-0.6638 3.39463,-1.56218 0.97966,-0.73611 2.99208,-1.87088 4.47207,-2.52129 1.47999,-0.65041 2.6908,-1.28108 2.6908,-1.40198 0,-0.1209 -0.54113,-0.74441 -1.20251,-1.38545 -1.16241,-1.12665 -1.24754,-1.15097 -2.55747,-0.72709 -0.74532,0.24118 -1.93973,0.73242 -2.6541,1.09141 -1.82191,0.91556 -7.57498,2.36726 -11.75381,2.96623 -6.8176,0.97719 -17.15881,0.48411 -22.56244,-1.07591 -0.97871,-0.28256 -2.6405,-0.67564 -3.6928,-0.87333 -1.05231,-0.19769 -3.28939,-0.9931 -4.97127,-1.76785 -1.68188,-0.77475 -3.16252,-1.4087 -3.29024,-1.4087 z m 3.61425,24.68842 -1.62833,1.53789 c -1.88439,1.78043 -1.8567,2.39167 0.1478,3.25613 4.10396,1.76987 13.09322,4.11494 17.21342,4.49016 5.19966,0.47353 12.01828,0.0694 16.93333,-1.00355 3.07059,-0.67032 5.82173,-1.55209 5.81773,-1.86449 -0.002,-0.12992 -0.48599,-1.07819 -1.0759,-2.10685 -0.78036,-1.36078 -1.23635,-1.82284 -1.67277,-1.69653 -1.87833,0.54362 -3.83824,0.93917 -7.30239,1.47329 -7.93998,1.22421 -19.62745,-0.19178 -26.43612,-3.2029 z m -4.04007,19.40863 c -0.26159,0 -0.89843,0.55432 -1.4149,1.23145 -1.49988,1.96645 -1.09685,2.62869 3.01584,4.95732 4.829,2.7342 10.23423,4.31443 17.81907,5.2095 1.6698,0.19705 9.39593,-0.13981 10.76006,-0.46922 0.6791,-0.16399 2.14927,-0.40681 3.2675,-0.5395 1.11822,-0.13269 2.12037,-0.38186 2.22674,-0.55397 0.10637,-0.17211 1.41397,-1.09823 2.90577,-2.05776 3.35306,-2.15672 7.09606,-5.82769 6.52466,-6.39909 -0.28769,-0.28769 -0.6598,-0.19595 -1.39681,0.3452 -1.41059,1.03572 -7.79459,3.46221 -9.86245,3.74861 -0.94898,0.13143 -3.05573,0.46222 -4.68188,0.73483 -1.62614,0.27262 -4.13753,0.49558 -5.58054,0.49558 -6.87484,0 -17.01804,-2.55295 -21.04368,-5.29632 -1.13523,-0.77363 -2.27778,-1.40663 -2.53938,-1.40663 z" /><path
             style="fill:#2d313a"
             d="m 188.98225,-448.11559 c -1.28355,-0.59624 -2.49503,-1.90882 -4.02932,-4.36558 -1.45727,-2.33343 -4.56985,-5.19856 -6.24991,-5.75303 -1.80661,-0.59623 -5.28856,-0.24499 -7.1906,0.72536 -0.86574,0.44167 -2.66105,1.56639 -3.98958,2.49938 -4.78263,3.35871 -7.91611,2.49043 -9.46957,-2.624 -2.37355,-7.81439 2.13336,-17.27479 10.25541,-21.527 3.66916,-1.92095 6.03583,-2.49023 10.26663,-2.46954 3.11466,0.0152 4.18004,0.17888 6.6943,1.02835 11.10511,3.75198 17.64621,15.43304 14.17405,25.31196 -1.90927,5.4322 -6.87719,8.83905 -10.46141,7.1741 z"
             id="path51" /><path
             style="fill:#2d313a"
             d="m 62.966394,-443.41157 c -4.28314,-2.17811 -7.196778,-8.61456 -6.653231,-14.69751 0.499324,-5.58804 2.553386,-9.89606 6.710883,-14.07485 3.310943,-3.3279 6.951319,-5.36157 11.348747,-6.33991 9.79437,-2.17904 20.588732,3.8683 23.966073,13.42654 0.383143,1.08434 0.681299,3.19095 0.773913,5.46806 0.185438,4.55938 -0.461287,6.73751 -2.389687,8.04832 -1.857173,1.26239 -3.74196,0.94778 -7.608764,-1.27003 -3.615087,-2.07345 -5.818178,-2.72335 -8.253943,-2.43487 -3.624277,0.42925 -6.142246,2.60327 -9.037742,7.80323 -0.949457,1.70511 -2.188037,3.42899 -2.7524,3.83085 -1.515207,1.07892 -4.243384,1.18627 -6.103849,0.24017 z"
             id="path50" /><path
             style="fill:#2d313a"
             d="m 97.822919,-376.71816 c -9.451509,-8.32855 -16.531578,-22.89174 -17.537787,-36.07395 -0.189286,-2.47982 -0.116727,-3.39107 0.371899,-4.67052 1.561567,-4.0889 4.375325,-4.0554 13.427999,0.15988 9.01804,4.19915 16.36562,6.90056 22.4426,8.25125 15.75163,3.501 28.67759,1.00102 46.38247,-8.97073 11.76121,-6.62415 13.20434,-7.17938 15.74226,-6.05674 2.72021,1.20328 3.47752,4.4627 2.75093,11.83987 -1.22819,12.46989 -6.65332,25.02614 -14.22526,32.92375 l -3.051,3.16239 -3.41948,-1.82391 c -3.50315,-1.86854 -4.26744,-5.04941 -7.68855,-7.07357 -2.56256,-1.51619 -7.67686,-3.30494 -9.27608,-3.30494 -1.31521,0 -2.51262,1.6365 -4.914,5.70371 -3.71955,6.29983 -6.4356,5.98596 -11.01215,-0.88784 -3.30979,-4.97116 -3.76863,-2.42069 -7.05297,-1.53827 -6.74932,1.81337 -9.73558,3.06468 -13.70933,9.47555 -0.81078,1.30803 -4.93981,2.20431 -5.18111,2.20597 -0.2413,0.002 -2.514303,-1.96827 -4.050441,-3.3219 z"
             id="path49"
             sodipodi:nodetypes="ssssssssscssssssscs" /><path
             style="fill:#2d313a"
             d="m 144.46712,-316.42792 c -1.84534,-0.68605 -1.87703,-3.11763 -0.0816,-6.2613 1.84765,-3.23512 5.94402,-5.34014 9.46072,-4.86163 4.55584,0.6199 8.50129,4.54775 8.50129,8.46337 0,1.6815 -0.30967,2.33431 -1.28284,2.70431 -1.23429,0.46927 -2.53887,-0.15455 -2.77875,-1.32873 -0.11041,-0.54044 -0.51741,-1.62644 -0.90443,-2.41332 -2.25614,-4.5871 -9.03615,-3.37432 -10.00492,1.78964 -0.31227,1.66455 -1.48867,2.43588 -2.90947,1.90766 z"
             id="path48" /><path
             style="fill:#2d313a"
             d="m 97.668239,-316.77367 c -1.07442,-0.84514 -1.150378,-1.6047 -0.409843,-4.09835 0.665146,-2.23979 2.832104,-4.73925 5.032694,-5.8049 2.25089,-1.09001 5.93893,-1.13096 8.19811,-0.091 3.27079,1.50559 5.76943,5.17818 5.57417,8.19313 -0.0905,1.39813 -0.25125,1.70789 -1.09505,2.11063 -1.38585,0.66147 -2.55518,-0.1486 -3.09081,-2.14119 -0.53632,-1.99517 -2.63148,-3.99609 -4.51802,-4.31482 -2.81528,-0.47564 -5.55535,1.57483 -6.20353,4.64228 -0.4122,1.9507 -2.031999,2.64932 -3.487721,1.50425 z"
             id="path47" /><path
             style="fill:#2d313a"
             d="m 125.19212,-303.33739 c -5.0707,-1.62022 -8.40152,-5.95993 -6.23626,-8.12519 1.20108,-1.20107 2.49842,-0.91418 4.00241,0.88507 2.32614,2.78281 5.53991,3.83614 9.1047,2.98413 1.56752,-0.37464 2.2219,-0.7989 3.87571,-2.51275 2.18607,-2.26543 3.29583,-2.59725 4.53663,-1.35645 1.49582,1.49583 0.48098,4.0078 -2.50455,6.19939 -3.4317,2.5191 -8.52132,3.28613 -12.77864,1.9258 z"
             id="path28" /><path
             style="fill:#dd2728"
             d="m 126.01142,-364.24559 c -8.20374,-1.04356 -14.99462,-3.42592 -21.72925,-7.62298 l -2.85563,-1.77966 2.14306,-3.16633 c 4.021,-5.94094 9.86974,-10.55176 15.97448,-12.59336 4.4774,-1.49738 4.50724,-1.4826 8.15198,4.03841 2.56776,3.88962 3.49301,4.76703 5.2797,5.00667 1.18887,0.15946 1.56678,0.0305 2.62017,-0.89443 0.67701,-0.59442 2.25026,-2.77131 3.49612,-4.83753 2.77337,-4.59955 3.36121,-5.00024 6.24861,-4.25924 5.23148,1.34256 8.82775,3.29632 12.94269,7.03141 1.45403,1.31981 3.39151,3.44763 4.3055,4.72848 l 1.66181,2.32882 -1.21615,1.04419 c -2.20295,1.89146 -7.51693,5.26593 -10.38837,6.59677 -6.58902,3.05386 -11.75057,4.21337 -19.57917,4.39832 -3.20145,0.0756 -6.37645,0.0668 -7.05555,-0.0195 z"
             id="path70"
             sodipodi:nodetypes="sscssssssssscsssss" /></g><path
           id="path76"
           style="fill:#fb9e03"
           d="m 143.65023,-567.27338 5.2e-4,5.1e-4 c -6.10949,-0.53685 -21.16515,-0.52609 -26.63507,0.0191 -25.751613,2.56736 -48.932748,10.91002 -69.565745,25.03568 -16.211641,11.09873 -31.928362,27.43412 -42.464046,44.13581 -13.5243533,21.43948 -21.354727,44.38836 -24.916817,73.025 -0.909387,7.31129 -0.913467,31.0472 -0.009,38.27673 2.64355,21.09441 7.770877,39.05448 16.4868404,57.74842 3.06928997,6.583 3.06262997,6.06166 0.1049,8.17573 -7.4072134,5.29438 -13.1218704,16.23669 -14.5960004,27.94816 -0.64686,5.13908 -0.24465,14.12459 0.86248,19.27893 3.339927,15.54937 11.5532937,29.84189 24.0760338,41.8946 17.3122202,16.66241 39.9289182,26.7536 62.9258432,28.07632 4.490831,0.2583 8.022587,-0.14154 11.576024,-1.31051 1.22506,-0.40302 2.3179,-0.64215 2.4288,-0.53124 0.394071,0.39406 4.346717,-2.71893 5.731948,-4.51445 2.309006,-2.9929 4.017576,-7.85101 3.135206,-8.91419 -0.56777,-0.68413 0.0237,-1.8506 1.05213,-2.0748 0.52065,-0.11351 1.406861,-0.3517 1.969388,-0.52969 1.415819,-0.44797 1.782119,-0.41169 1.330659,0.13229 -0.20819,0.25085 0.77074,-0.10634 2.17507,-0.79375 1.404326,-0.68742 2.414946,-1.34697 2.245846,-1.46554 -0.34448,-0.24155 1.4665,-1.79637 1.83038,-1.57148 0.12753,0.0788 1.05773,-0.96389 2.06706,-2.31717 3.22195,-4.31992 4.13463,-9.63011 2.50682,-14.58877 l -0.75654,-2.30374 2.0035,-2.10013 c 2.39197,-2.50774 3.91204,-5.5804 4.47931,-9.05319 0.56349,-3.44957 0.0488,-6.19834 -1.87172,-9.99681 -1.25533,-2.4828 -1.92333,-3.33429 -3.94653,-5.0276 -2.59461,-2.17153 -5.46921,-3.69507 -8.765356,-4.64675 -2.25564,-0.65126 -2.44699,-1.05458 -1.21956,-2.5678 3.902736,-4.81142 4.707286,-12.44229 1.89652,-17.98908 -2.01272,-3.97191 -5.797517,-6.98206 -10.642754,-8.46357 -1.87451,-0.5732 -3.20636,-0.63421 -11.641654,-0.53691 -10.878794,0.12554 -14.597181,-0.26168 -20.130548,-2.09652 -2.37964,-0.78907 -3.54403,-1.36754 -3.925856,-1.95027 -0.34372,-0.52458 -0.88582,-0.82889 -1.477941,-0.82889 -1.15083,0 -3.984826,-1.63831 -10.575574,-6.11435 -7.955767,-5.40307 -13.058574,-7.69386 -21.256578,-9.54205 -0.18483,-0.0417 -0.45379,-0.21938 -0.78393,-0.50643 -0.0455,-4.3e-4 -0.0909,-10e-4 -0.13642,-0.002 -0.2342,-0.004 -0.46843,-0.0108 -0.70125,-0.0388 -0.2017,-0.027 -0.40261,-0.0631 -0.59893,-0.11575 -0.39118,0.35698 -3.502577,0.0769 -4.039027,-0.36691 -0.74906,-0.61963 -6.2127262,-12.45251 -8.584483,-18.59163 -6.5795766,-17.03075 -9.8261866,-30.8381 -11.2453033,-47.8224 -0.56264,-6.73375 -0.24559,-26.29224 0.52606,-32.43471 3.6081867,-28.7216 13.5882401,-53.99835 29.7480403,-75.34424 6.677517,-8.82049 17.519182,-19.54762 26.306385,-26.0289 12.587125,-9.28401 22.973179,-14.67977 37.811109,-19.64377 21.9141,-7.33133 45.85291,-8.78533 68.96788,-4.18837 27.49125,5.46729 51.0548,17.74555 70.68406,36.83083 7.81633,7.59972 14.30258,15.55672 20.01015,24.54785 9.90518,15.60362 16.79946,32.84844 20.58067,51.47955 7.1788,35.37203 1.69045,71.27248 -16.27343,106.45035 l -2.6572,5.20381 h -2.57504 c -1.41635,0 -2.82624,0.0962 -3.13315,0.21394 -0.5647,0.2167 -0.68038,-0.009 -0.39067,-0.56327 h -0.3824 c -0.2015,0.0947 -0.40537,0.18392 -0.61444,0.2651 -0.2159,0.0709 -0.43295,0.13755 -0.65216,0.19637 -0.0392,0.0175 -0.0747,0.0293 -0.10645,0.0357 -0.0302,0.006 -0.073,0.0141 -0.12712,0.0238 -0.25325,0.0608 -0.50935,0.10972 -0.76895,0.14211 -0.11837,0.0179 -0.23695,0.0331 -0.35553,0.0455 -1.03105,0.16755 -2.55504,0.40868 -4.13619,0.65319 -8.35493,1.29197 -15.42904,4.09772 -22.86993,9.07076 -2.15364,1.43936 -4.0869,2.61689 -4.29689,2.61689 -0.20998,0 -0.72622,0.48281 -1.1467,1.07332 -1.15871,1.62726 -7.79545,6.15944 -12.15947,8.30337 -6.22392,3.05764 -10.97857,4.10462 -22.40121,4.93148 -7.77922,0.56312 -12.92823,3.20743 -16.24862,8.34472 -1.86309,2.88257 -2.56948,5.79456 -2.39107,9.85831 0.12238,2.78748 0.31773,3.66632 1.26969,5.69939 0.61907,1.32213 1.8594,3.26294 2.75642,4.31292 l 1.63142,1.90892 -1.0051,0.41187 c -6.40857,2.62234 -9.57036,5.15158 -11.61842,9.29555 -3.22181,6.51889 -2.12721,13.41434 2.95435,18.6123 l 1.97559,2.02055 -0.64699,1.33119 c -0.96823,1.99191 -1.12637,5.91924 -0.35709,8.88524 0.35065,1.35194 0.75624,2.42755 0.90021,2.39055 0.14398,-0.037 0.87401,0.80561 1.62315,1.87276 1.81488,2.5853 5.21659,5.12821 7.79074,5.82393 3.59104,0.97054 3.75341,1.12333 3.97909,3.73104 0.57834,6.68271 6.41945,11.95645 14.37845,12.98267 14.24466,1.83667 37.24352,-4.24704 54.30987,-14.36605 9.01104,-5.34284 15.15916,-10.18588 22.32578,-17.58704 8.74431,-9.03049 14.53371,-18.07213 18.59216,-29.03699 5.90605,-15.95657 6.1935,-31.241 0.81752,-43.45264 -2.39446,-5.43906 -5.78282,-9.80619 -10.93009,-14.087 l -1.90841,-1.58698 2.57142,-5.27358 c 5.62052,-11.52782 9.36561,-21.20637 12.52069,-32.35668 12.34302,-43.62113 8.81547,-83.51603 -10.92492,-123.55318 -5.48868,-11.13205 -11.00412,-19.79026 -18.72548,-29.39666 -6.52404,-8.11678 -16.24231,-17.66294 -24.66415,-24.22694 -23.14988,-18.04312 -49.65023,-28.16119 -80.9625,-30.91284 z m 81.67099,108.21458 c -0.63202,-0.002 -1.27671,0.0408 -1.93167,0.13332 -6.26657,0.88577 -10.74629,5.90773 -11.21172,12.56823 -0.46528,6.65828 4.22652,12.54354 10.77351,13.5139 2.00294,0.29686 2.51013,0.28167 5.16971,-0.15606 3.31964,-0.54636 7.11583,-3.47323 8.79016,-6.77736 4.51432,-8.90858 -2.10971,-19.24527 -11.58999,-19.28203 z m -190.1713,8.66459 c -5.669637,0.0293 -10.352624,3.52112 -12.174964,9.18858 -2.279796,7.09018 1.87678,14.61356 9.206158,16.66255 5.026007,1.40506 11.02761,-0.93211 14.06166,-5.47563 2.614277,-3.91492 2.919017,-9.25271 0.75965,-13.3041 -2.24012,-4.20288 -6.004607,-6.67555 -10.705804,-7.0311 -0.38619,-0.0292 -0.76872,-0.0423 -1.1467,-0.0403 z m -24.172674,76.28371 c -0.0858,0.0263 -0.17054,0.0571 -0.25373,0.093 -0.12258,0.0538 -0.19079,0.0822 -0.22427,0.094 -0.0322,0.043 -0.0638,0.0861 -0.0951,0.12971 0.11909,-0.0778 0.24165,-0.14892 0.36794,-0.21446 0.0689,-0.0357 0.13713,-0.0706 0.20515,-0.10232 z m -0.36276,0.0961 c -0.007,9.3e-4 -0.0267,0.008 -0.0641,0.0233 -0.0104,0.0136 -0.0207,0.0272 -0.031,0.0408 0.0394,-0.024 0.0904,-0.0532 0.0971,-0.0615 l 5.2e-4,-5.1e-4 v -5.2e-4 -5.2e-4 -5.1e-4 h -5.2e-4 -5.1e-4 l -5.2e-4,-5.2e-4 h -5.2e-4 z m 232.604874,1.7477 c -0.0695,0.006 -0.14762,0.0183 -0.23512,0.0377 v 0.22324 c 0.0795,-0.0883 0.15784,-0.17543 0.23512,-0.26096 z m 0.51625,56.66114 c 6.90773,0.22257 12.9911,2.55594 17.39688,6.92671 5.82836,5.78204 8.44156,13.72435 8.01347,24.3551 -0.42598,10.57857 -4.10759,21.16592 -10.97867,31.5712 -11.64634,17.63674 -31.70322,31.81945 -54.14296,38.28603 -5.83215,1.68068 -10.97785,2.75117 -14.5185,3.02049 -1.45207,0.11046 -3.19611,0.24943 -3.87521,0.30903 -1.65966,0.14553 -5.1668,-0.27103 -6.77323,-0.80461 -1.54475,-0.5131 -3.45716,-2.55239 -3.45716,-3.68659 0,-1.43486 0.78226,-2.00396 3.53467,-2.5709 8.14891,-1.6785 20.52503,-7.21459 22.9123,-10.24951 1.63189,-2.07461 0.30612,-5.05034 -2.24999,-5.05034 -0.67921,0 -2.63076,0.61441 -4.33721,1.36478 -9.19987,4.04544 -15.1118,5.61427 -22.35574,5.93297 -5.83131,0.25655 -7.75743,-0.119 -9.86606,-1.92391 -2.42087,-2.07217 -3.07186,-4.53284 -1.7663,-6.67401 0.93922,-1.54035 1.33365,-1.69863 6.36705,-2.54869 8.07248,-1.36332 15.24551,-3.94233 21.11499,-7.5923 3.59808,-2.23748 4.5979,-3.56498 3.95635,-5.25239 -0.40474,-1.06453 -2.0095,-2.35645 -2.92747,-2.35645 -0.38051,0 -2.54302,0.78405 -4.80539,1.74202 -7.85951,3.32803 -14.58174,5.13351 -20.6804,5.5547 -3.15252,0.21772 -5.0927,-0.17197 -6.92309,-1.39113 -2.37948,-1.5849 -3.15646,-5.05382 -1.81229,-8.09253 1.35861,-3.07136 4.48812,-4.79739 12.61163,-6.95513 9.43033,-2.50484 16.08177,-5.12705 17.2558,-6.80321 0.83129,-1.18683 0.70087,-2.84411 -0.29766,-3.78219 -0.82553,-0.77554 -0.99452,-0.79285 -5.38003,-0.55966 -6.98177,0.37123 -10.76527,-0.4668 -13.68495,-3.03031 -4.62532,-4.06108 -2.90455,-11.47122 3.05769,-13.1687 1.02666,-0.2923 4.40621,-0.69673 7.51065,-0.89865 7.96685,-0.51817 11.14564,-1.08371 17.28629,-3.07475 5.52907,-1.79275 10.72774,-4.80556 18.58026,-10.76782 5.48483,-4.16453 8.87215,-6.27126 12.85193,-7.99331 5.27104,-2.28078 10.48749,-3.5399 15.37374,-3.80184 1.01797,-0.0546 2.02179,-0.0659 3.00861,-0.0341 z m -227.967437,0.15916 c 7.589083,0.0309 11.84862,1.69585 22.455454,8.77621 7.738167,5.16546 11.447744,7.13232 16.585541,8.79326 7.170967,2.31848 14.281955,3.00687 23.855898,2.31045 6.601134,-0.48017 8.567234,-0.23515 11.125935,1.38752 2.105286,1.33514 3.061786,3.1835 3.051486,5.89731 -0.0238,6.28362 -5.825227,9.95717 -15.752001,9.97407 -3.341836,0.006 -3.663447,0.0689 -4.674127,0.91932 -1.5295,1.28703 -1.53586,3.23106 -0.015,4.51084 1.398841,1.17704 6.137987,2.67112 13.569711,4.27829 12.404544,2.68259 14.89113,3.568 17.20049,6.12418 1.42289,1.57497 1.84449,3.08242 1.59318,5.69784 -0.22468,2.33821 -1.57882,4.05651 -4.11551,5.22294 -1.717356,0.78968 -2.443206,0.90785 -5.506112,0.89555 -5.559697,-0.0224 -14.566935,-2.01247 -21.364578,-4.72064 -1.936211,-0.77139 -4.080101,-1.40302 -4.764567,-1.40302 -2.694461,0 -3.961301,3.35997 -2.100641,5.57124 1.12899,1.34173 7.760414,4.62915 12.531525,6.21254 4.328996,1.43666 9.431303,2.51785 14.03479,2.97398 3.509577,0.34774 4.261077,0.72932 5.267377,2.67529 0.70973,1.37248 0.36192,3.83298 -0.78703,5.56916 -3.556237,5.37385 -17.465761,4.90248 -32.795402,-1.11156 -5.529897,-2.16946 -5.962717,-2.26615 -7.232103,-1.60972 -1.856411,0.95999 -2.316011,2.99175 -1.118801,4.94285 1.571041,2.56034 11.543965,7.24955 19.864408,9.34 2.862991,0.71931 5.450507,1.511 5.750037,1.75959 0.30086,0.2497 0.54415,1.00397 0.54415,1.68516 0,1.73491 -2.01836,3.70619 -4.571287,4.46433 -3.969266,1.17875 -12.597834,0.52647 -20.714487,-1.56631 -15.825171,-4.08035 -31.579072,-13.10821 -43.355477,-24.84448 -4.9964562,-4.97943 -7.4053062,-7.86376 -10.6422329,-12.74238 -7.2214667,-10.88403 -10.6367334,-21.27799 -10.7037334,-32.57578 -0.0586,-9.8886 2.4960467,-17.41572 7.85584337,-23.14536 2.53237003,-2.70711 4.75230993,-4.17316 8.13180673,-5.37125 2.2257062,-0.78904 3.1184962,-0.90642 6.7954472,-0.89142 z" /><path
           style="fill:#dd2728"
           d="m 139.78136,-184.3021 c -2.24194,-0.62538 -4.61889,-2.0663 -6.34262,-3.84492 -0.66865,-0.68994 -1.30792,-1.25445 -1.4206,-1.25445 -0.11268,0 -1.05059,0.63546 -2.08424,1.41213 -4.15038,3.11853 -10.65645,3.74697 -15.13361,1.46178 -2.95826,-1.50992 -4.67861,-3.12966 -6.04307,-5.68966 -0.62239,-1.16772 -1.1825,-2.12313 -1.24469,-2.12313 -0.0622,0 -0.98722,0.40019 -2.05561,0.88932 -1.0684,0.48913 -3.22912,1.07685 -4.8016,1.30604 -7.441869,1.08466 -13.739784,-2.61592 -15.70273,-9.22675 -0.99292,-3.34397 -0.842658,-3.95172 1.350509,-5.46221 3.168761,-2.18241 6.501019,-7.31717 6.544237,-10.08418 0.01884,-1.20597 0.209613,-1.42307 2.762528,-3.14377 1.957436,-1.31933 4.346901,-2.5373 7.531446,-3.83896 0.66661,-0.27247 0.89255,-0.57584 0.77205,-1.03663 -0.10404,-0.39783 0.14474,-0.92072 0.63902,-1.34312 0.60985,-0.52118 0.69246,-0.54063 0.33509,-0.0789 -0.99478,1.28526 -0.22757,2.24127 3.48608,4.34395 6.29057,3.56176 13.42976,5.24065 21.96732,5.16596 2.86627,-0.0251 5.80315,-0.19887 6.52639,-0.3862 0.72325,-0.18734 2.2299,-0.44917 3.34813,-0.58186 1.11822,-0.13269 2.12016,-0.38207 2.22653,-0.55418 0.10637,-0.17211 1.41396,-1.09801 2.90576,-2.05754 3.35306,-2.15672 7.09628,-5.82787 6.52488,-6.39927 -0.28769,-0.28769 -0.65978,-0.19565 -1.39679,0.3455 -1.41059,1.03572 -7.79468,3.46223 -9.86254,3.74863 -0.94898,0.13143 -3.0559,0.46201 -4.68205,0.73462 -1.62614,0.27262 -4.13727,0.49567 -5.58028,0.49567 -6.69514,0 -17.18019,-2.58329 -20.70722,-5.1018 -2.29178,-1.63647 -2.9265,-1.80518 -3.82015,-1.01542 -0.44785,0.3958 -0.29882,0.0413 0.38185,-0.90831 2.48109,-3.46133 3.22085,-9.16894 1.7637,-13.60774 l -0.75623,-2.30363 2.00328,-2.10023 c 2.39197,-2.50774 3.91233,-5.5803 4.4796,-9.05309 0.56349,-3.44957 0.0488,-6.19873 -1.87176,-9.9972 -1.25533,-2.4828 -1.92349,-3.33389 -3.94669,-5.0272 -2.59461,-2.17153 -5.46902,-3.69552 -8.765167,-4.6472 -2.25564,-0.65126 -2.447028,-1.05415 -1.219599,-2.56737 2.986066,-3.68131 4.153236,-8.45461 3.284336,-13.43175 -1.12417,-6.4394 -5.300377,-10.95984 -12.030709,-13.02235 -1.787146,-0.54768 -3.269989,-0.64342 -9.525,-0.61499 -5.064955,0.023 -6.515618,-0.0446 -4.586111,-0.2137 4.245314,-0.37212 4.409722,-0.46481 4.409722,-2.48613 0,-0.93605 -0.144901,-1.79147 -0.322002,-1.90093 -0.526446,-0.32536 -0.04962,-6.51053 0.727731,-9.43987 l 0.721291,-2.71808 -1.004482,-1.41953 c -0.552465,-0.78074 -1.265476,-1.42292 -1.584468,-1.42706 -0.318992,-0.004 -1.719915,1.25697 -3.113161,2.80246 -3.611014,4.00563 -8.183828,7.34136 -12.779419,9.32223 -2.074912,0.89436 -4.218037,1.62699 -4.7625,1.62808 -0.544464,0.001 -1.585247,0.16729 -2.312851,0.36936 -4.13647,1.14875 1.909043,3.80403 11.200695,4.91951 3.50659,0.42097 4.637138,0.64656 3.351388,0.66875 -5.155944,0.089 -15.026054,-2.40494 -16.118865,-4.07278 -0.343714,-0.52458 -0.885872,-0.82848 -1.478,-0.82848 -1.150823,0 -3.984972,-1.63865 -10.575724,-6.11469 -7.955762,-5.40307 -13.058239,-7.69351 -21.256247,-9.5417 -0.892128,-0.20112 -3.736995,-3.56823 -6.026164,-7.1324 -3.018055,-4.69903 -5.6945163,-11.47678 -7.0213928,-17.78065 -1.0917557,-5.18684 -1.0957316,-13.04982 -0.00865,-17.10972 1.0684589,-3.99036 2.0697176,-5.78964 3.6895998,-6.63028 2.584656,-1.34132 4.381159,-0.009 12.511584,9.27611 0.832119,0.95034 1.178117,1.1391 1.502227,0.81957 0.325719,-0.32111 0.251157,-0.69012 -0.32919,-1.62914 -1.0675,-1.72725 -0.931434,-2.09024 0.173821,-0.46371 0.859402,1.26472 0.892778,1.45488 0.476659,2.71573 -0.382305,1.1584 -0.360918,1.58237 0.146903,2.91208 0.823829,2.15716 1.486179,2.63395 4.191273,3.01704 2.857456,0.40466 3.079974,0.52978 3.082468,1.73328 0.0059,2.87095 1.305998,4.88042 4.337595,6.70459 2.428375,1.4612 3.860793,1.55056 5.093604,0.31775 1.173549,-1.17355 1.18366,-2.63112 0.03038,-4.37932 -1.299711,-1.97017 -2.407991,-5.19884 -2.407991,-7.01501 0,-1.41349 -0.121583,-1.65762 -1.091514,-2.19163 -6.113753,-3.36604 -7.018633,-4.8785 -5.936778,-9.92302 l 0.380041,-1.77207 -2.555693,-3.80154 c -3.225723,-4.7982 -5.295715,-7.99558 -6.343743,-9.79877 -1.038513,-1.78681 -2.827622,-4.05694 -3.197311,-4.05694 -0.155358,0 -0.519308,0.43656 -0.808778,0.97014 -0.28947,0.53357 -0.532071,0.81139 -0.539115,0.61736 -0.03563,-0.98153 1.503235,-2.64657 3.224198,-3.48856 8.724329,-4.26841 23.579633,-1.53524 35.404746,6.514 10.944368,7.44972 19.17272,19.23753 22.811736,32.67973 1.070437,3.9541 1.126718,4.47983 1.143881,10.68511 0.01596,5.7692 -0.07879,6.89475 -0.816666,9.70139 -0.459095,1.74625 -1.292533,4.18914 -1.852084,5.42865 -1.244499,2.7568 -1.248711,2.95817 -0.09355,4.47266 1.147538,1.5045 1.478164,1.51532 1.975019,0.0647 0.215978,-0.63059 1.318347,-2.97216 2.449709,-5.20347 6.90895,-13.62613 20.685198,-23.98935 36.102848,-27.1585 9.64843,-1.98327 20.19824,-1.59261 29.04745,1.07561 1.87446,0.56519 3.59543,1.02943 3.82439,1.03164 0.22896,0.002 1.09761,-1.27468 1.93034,-2.83754 4.01146,-7.52871 10.78707,-13.20983 15.75475,-13.20983 1.6871,0 1.9982,0.12284 2.91784,1.1521 0.80296,0.89867 1.02939,1.4896 1.02939,2.68645 0,2.04836 -0.85539,3.06291 -3.95629,4.69238 -3.07996,1.61848 -6.66078,5.09156 -8.47912,8.22403 -0.72761,1.25344 -1.32292,2.47104 -1.32292,2.70576 0,0.23473 1.30969,1.28559 2.91042,2.33526 7.87589,5.16457 14.7048,13.04568 18.48319,21.33111 0.67092,1.47122 1.38471,2.55764 1.68041,2.55764 0.28272,0 0.86194,-0.48857 1.28713,-1.0857 l 0.77309,-1.0857 -1.77105,-3.41222 c -3.43851,-6.62488 -4.70525,-11.71377 -4.7132,-18.93444 -0.0221,-20.09157 12.90599,-39.30571 31.6463,-47.03359 1.34614,-0.5551 4.1136,-1.46547 6.14992,-2.02304 3.38689,-0.92738 4.18341,-1.01178 9.34685,-0.99043 4.62438,0.0191 6.14898,0.16046 8.43626,0.78208 2.90907,0.7906 5.37936,2.0281 6.22606,3.11895 0.47406,0.61076 0.46424,0.61162 -0.23229,0.0203 -0.39999,-0.33955 -0.96943,-0.61736 -1.26541,-0.61736 -0.32861,0 -1.47352,1.75138 -2.94036,4.49791 -1.32121,2.47386 -3.21658,5.76792 -4.21193,7.32014 -0.99534,1.55222 -2.39681,3.87755 -3.11436,5.16739 -1.29423,2.32644 -1.30044,2.35706 -0.77839,3.83671 1.35296,3.83471 0.37001,6.02523 -3.70708,8.26118 l -2.64584,1.45103 -0.18554,2.28351 c -0.18754,2.30815 -1.10244,4.78631 -2.4826,6.72456 -1.01851,1.43037 -0.98679,3.30275 0.0752,4.44013 0.7234,0.77474 1.05849,0.86915 2.63013,0.74104 2.76307,-0.22522 4.95935,-1.67602 5.94186,-3.92501 0.43649,-0.99916 0.89884,-2.36186 1.02744,-3.02822 0.35837,-1.85708 1.10363,-2.43718 3.47577,-2.70556 2.32565,-0.26312 2.98371,-0.75258 4.1319,-3.07327 0.61882,-1.25074 0.63939,-1.48871 0.18482,-2.1377 -0.73275,-1.04615 -0.64254,-1.60636 0.54683,-3.39551 0.58042,-0.87313 1.05599,-1.42592 1.05682,-1.22842 8.3e-4,0.19749 -0.4057,0.95834 -0.9034,1.69077 -0.9051,1.33197 -1.02266,2.36458 -0.29673,2.60625 0.21222,0.0707 2.27597,-1.99059 4.58611,-4.58053 5.16665,-5.79243 6.14856,-6.60196 8.00777,-6.60196 1.14333,0 1.61439,0.22643 2.56258,1.23181 3.3381,3.53941 4.90182,14.1329 3.38996,22.96537 -1.23265,7.20128 -4.2325,14.93355 -7.92583,20.42921 -2.24364,3.33853 -5.29595,6.87352 -6.06756,7.02705 -0.38806,0.0772 -2.81255,0.46621 -5.38777,0.86444 -8.35493,1.29197 -15.42872,4.09761 -22.86961,9.07065 -2.15364,1.43936 -4.08752,2.61703 -4.29751,2.61703 -0.20998,0 -0.72582,0.48314 -1.1463,1.07365 -1.56739,2.2012 -12.30334,8.99426 -15.86409,10.03784 -0.48507,0.14217 1.17443,-0.79726 3.68777,-2.08761 2.51334,-1.29035 5.37084,-2.94527 6.35,-3.67761 0.97916,-0.73233 2.5277,-1.87765 3.44121,-2.54515 1.69578,-1.23909 2.28263,-2.03814 1.79022,-2.43753 -0.15188,-0.12319 -1.14927,-0.59119 -2.21642,-1.04 -7.34583,-3.0894 -11.84807,-5.78754 -16.37613,-9.81403 -2.61545,-2.32574 -2.81848,-2.38562 -4.12638,-1.21701 l -1.12407,1.00435 0.58455,1.71554 c 0.32149,0.94354 0.99747,4.02643 1.50216,6.85085 0.81457,4.55858 0.89042,5.66028 0.67536,9.80962 -0.26771,5.16503 -0.36347,4.96469 2.05245,4.29385 0.7458,-0.20709 1.4312,-0.30133 1.52312,-0.20941 0.34689,0.3469 -6.22058,1.61835 -10.28745,1.99164 -2.32833,0.21371 -5.74192,0.53642 -7.58575,0.71713 -6.90066,0.67632 -11.69059,3.31939 -14.83651,8.18673 -1.86309,2.88257 -2.5693,5.79445 -2.39089,9.8582 0.12238,2.78748 0.31833,3.6667 1.27029,5.69977 0.61907,1.32213 1.8595,3.26294 2.75652,4.31292 l 1.63094,1.90903 -1.00563,0.4115 c -6.40857,2.62234 -9.56952,5.15147 -11.61758,9.29544 -3.22181,6.51889 -2.12727,13.41469 2.95429,18.61265 l 1.97518,2.02041 -0.64696,1.33098 c -0.96218,1.97946 -1.13261,5.98306 -0.374,8.7856 l 0.62359,2.30371 -1.72258,1.77217 c -0.94742,0.97469 -2.95289,2.64197 -4.4566,3.70506 -1.50372,1.06308 -2.73403,2.0419 -2.73403,2.17513 0,0.13324 1.15093,0.95145 2.55764,1.81823 3.15938,1.94677 7.57324,6.11011 9.43749,8.90184 3.43661,5.14637 4.02898,11.07531 1.59905,16.00475 -1.50394,3.05092 -3.61401,5.08849 -6.82804,6.59344 -2.00197,0.9374 -2.834,1.11806 -5.53142,1.20102 -2.05045,0.0631 -3.85811,-0.0929 -5.10367,-0.44034 z"
           id="path77" /><path
           style="fill:#dd2728"
           d="m 146.73669,-316.23798 c 0.42566,-0.29815 0.95249,-1.2052 1.17073,-2.01568 0.23438,-0.87041 0.94355,-2.02035 1.73251,-2.80931 1.10629,-1.10629 1.58125,-1.33571 2.76535,-1.33571 2.86615,0 4.35133,1.16257 5.01399,3.92486 0.67216,2.80189 2.9823,3.69762 4.81354,1.86638 0.80585,-0.80585 0.88806,-1.10984 0.709,-2.62171 -0.3966,-3.34863 -2.6237,-6.43771 -5.74087,-7.9628 -1.71211,-0.83766 -2.22278,-0.92303 -4.65017,-0.77745 -4.44011,0.26629 -7.10506,2.0002 -9.04593,5.8856 -1.10982,2.22174 -1.33234,3.34017 -0.89756,4.51134 0.68737,1.85157 2.53753,2.44948 4.12941,1.33448 z"
           id="path78" /><path
           style="fill:#dd2728"
           d="m 100.47924,-316.20748 c 0.4017,-0.28136 1.08407,-1.48165 1.51638,-2.6673 0.87721,-2.40583 2.18988,-3.52029 4.14908,-3.52259 2.67195,-0.003 4.47228,1.40921 5.26285,4.12866 0.58214,2.0025 1.22794,2.5728 2.91341,2.5728 1.38705,0 2.51945,-1.41139 2.51479,-3.13438 -0.009,-3.15337 -3.73903,-7.98185 -6.83696,-8.84921 -2.24863,-0.62958 -6.35485,-0.32283 -8.15265,0.60904 -4.246957,2.20136 -7.199076,8.76624 -4.811611,10.69999 0.990785,0.8025 2.434181,0.87079 3.444711,0.16299 z"
           id="path79" /><path
           style="fill:#dd2728"
           d="m 134.0399,-302.75342 c 2.23035,-0.64601 3.23503,-1.1732 4.82594,-2.53235 3.23777,-2.76611 3.82955,-4.71655 1.98938,-6.55672 -1.58664,-1.58665 -2.61831,-1.39132 -4.75373,0.90002 -2.0574,2.20762 -3.68941,3.00767 -6.13534,3.00767 -2.87408,0 -4.80848,-0.88273 -6.6449,-3.03228 -1.14708,-1.34267 -1.88392,-1.90661 -2.49115,-1.90661 -1.2559,0 -2.14381,0.5797 -2.78395,1.81758 -0.51902,1.00368 -0.51717,1.21434 0.0231,2.6289 0.64506,1.68909 3.15512,4.15568 5.04721,4.95982 3.91892,1.66556 6.95332,1.86389 10.92348,0.71397 z"
           id="path80" /><path
           style="fill:#dd2728"
           d="m 141.00447,-262.09439 c 1.74625,-0.20432 3.96875,-0.58496 4.93889,-0.84587 0.97014,-0.2609 2.48988,-0.57505 3.3772,-0.6981 1.08294,-0.15019 2.19888,-0.66373 3.39453,-1.56211 0.97966,-0.73611 2.99211,-1.87053 4.4721,-2.52094 1.47999,-0.65041 2.6909,-1.28148 2.6909,-1.40238 0,-0.1209 -0.54114,-0.74431 -1.20252,-1.38535 -1.16241,-1.12665 -1.24771,-1.1509 -2.55764,-0.72702 -0.74532,0.24118 -1.93961,0.73223 -2.65398,1.09122 -1.82191,0.91556 -7.57509,2.3676 -11.75392,2.96657 -6.8176,0.97719 -17.15857,0.48402 -22.5622,-1.076 -0.97871,-0.28256 -2.64045,-0.67548 -3.69275,-0.87317 -1.05231,-0.19769 -3.28938,-0.99332 -4.97126,-1.76807 -1.68188,-0.77475 -3.16246,-1.40863 -3.29018,-1.40863 -0.65296,0 -0.0384,0.76928 1.66342,2.08222 1.27507,0.98371 2.26126,2.14846 3.0125,3.55794 0.9401,1.76381 1.32405,2.153 2.42589,2.45901 0.71996,0.19996 1.60209,0.36444 1.96028,0.36553 0.3582,10e-4 1.50788,0.25099 2.55486,0.55535 4.70626,1.36815 15.65375,1.95504 22.19388,1.1898 z"
           id="path81" /><path
           style="fill:#dd2728"
           d="m 137.82947,-238.44348 c 4.84861,-0.5389 11.47073,-2.13145 11.46197,-2.75648 -0.002,-0.12992 -0.48596,-1.07786 -1.07587,-2.10652 -0.78036,-1.36078 -1.23596,-1.823 -1.67238,-1.69669 -1.87833,0.54362 -3.83845,0.93903 -7.3026,1.47315 -7.93998,1.22421 -19.62731,-0.19179 -26.43598,-3.20291 l -1.99703,-0.88318 -1.62813,1.53831 c -1.88439,1.78043 -1.85663,2.39172 0.14787,3.25618 4.10396,1.76987 13.09307,4.11449 17.21327,4.48971 3.03541,0.27643 8.26283,0.22477 11.28888,-0.11157 z"
           id="path82" /><path
           id="path83"
           style="fill:#b51d1c"
           d="m 239.80913,-395.74277 c -0.71636,0.0196 -1.50891,1.28281 -3.20807,4.46433 -1.32121,2.47386 -3.21679,5.76774 -4.21214,7.31996 -0.99534,1.55222 -2.39648,3.87781 -3.11403,5.16765 -1.29423,2.32644 -1.30081,2.35681 -0.77876,3.83646 1.35296,3.83471 0.37034,6.02504 -3.70675,8.26099 l -2.64583,1.45107 -0.18552,2.28359 c -0.18754,2.30815 -1.10238,4.7864 -2.48254,6.72465 -1.01854,1.43037 -0.98709,3.30266 0.0749,4.44004 0.7234,0.77474 1.05869,0.86915 2.63033,0.74104 2.76307,-0.22522 4.95925,-1.67584 5.94176,-3.92483 0.43649,-0.99916 0.89873,-2.36187 1.02733,-3.02823 0.35837,-1.85708 1.10361,-2.4374 3.47575,-2.70578 2.32565,-0.26312 2.98386,-0.75251 4.13205,-3.0732 0.61882,-1.25074 0.63957,-1.48835 0.185,-2.13734 -0.73275,-1.04615 -0.64263,-1.60651 0.54674,-3.39566 1.68785,-2.53903 1.21665,-5.4078 -1.0418,-6.34328 -0.59123,-0.2449 -1.07487,-0.6571 -1.07487,-0.91622 0,-0.25912 1.10992,-2.59248 2.46652,-5.18521 3.93686,-7.52415 4.77832,-11.01677 3.15226,-13.08396 -0.45253,-0.57531 -0.80711,-0.90633 -1.18236,-0.89607 z m -218.97526,4.19974 c -0.517804,0 -1.361157,2.06068 -1.361157,3.3259 0,2.17803 2.179649,7.26511 4.949569,11.55072 2.028971,3.13921 2.076075,3.56313 0.553971,4.99866 -1.084699,1.02301 -1.270206,1.42502 -1.270206,2.75022 0,1.09322 0.2731,1.95463 0.923974,2.91248 0.859402,1.26472 0.892576,1.45475 0.476457,2.7156 -0.382305,1.1584 -0.360543,1.58225 0.147278,2.91196 0.823829,2.15716 1.485864,2.63378 4.190958,3.01687 1.29286,0.18309 2.492461,0.42069 2.665471,0.52762 0.17301,0.10693 0.410863,1.00793 0.52865,2.00246 0.117788,0.99453 0.501826,2.30122 0.853694,2.9037 0.753261,1.28977 3.489762,3.34028 5.278748,3.95531 1.537273,0.52849 2.270187,0.36447 3.307292,-0.73948 1.042898,-1.11011 1.011507,-2.60353 -0.08992,-4.27313 -1.299711,-1.97017 -2.407605,-5.1989 -2.407605,-7.01507 0,-1.41349 -0.121992,-1.65759 -1.091923,-2.1916 -6.113753,-3.36604 -7.018444,-4.87839 -5.936589,-9.92291 l 0.379822,-1.77199 -2.5554,-3.80183 c -3.225723,-4.7982 -5.295771,-7.9957 -6.343799,-9.79889 -1.041086,-1.79124 -2.827708,-4.0566 -3.199288,-4.0566 z m 165.33306,65.86265 c -0.40246,-3e-4 -0.75179,0.27198 -1.28312,0.74673 l -1.12397,1.00407 0.58446,1.71566 c 0.32149,0.94354 0.99755,4.02632 1.50224,6.85074 0.81684,4.5713 0.89061,5.65368 0.67282,9.8547 l -0.24443,4.71909 1.35341,-0.25063 c 3.72522,-0.69015 10.94199,-4.04882 14.75931,-6.86883 0.97014,-0.71668 2.5116,-1.84915 3.42511,-2.51665 1.69582,-1.23909 2.28248,-2.03818 1.79007,-2.43757 -0.15188,-0.12319 -1.14925,-0.59092 -2.2164,-1.03973 -7.34583,-3.0894 -11.8482,-5.78738 -16.37626,-9.81387 -1.55292,-1.38091 -2.25502,-1.96327 -2.84324,-1.96371 z m -108.184093,1.17254 c -0.318992,-0.004 -1.719742,1.25692 -3.112988,2.80241 -3.611014,4.00563 -8.183991,7.34156 -12.779582,9.32243 -2.074912,0.89436 -4.218037,1.62681 -4.7625,1.62781 -0.544464,0.001 -1.585433,0.16741 -2.313037,0.36948 -4.166613,1.15712 1.96109,3.83244 11.200867,4.89015 5.55535,0.63599 9.687532,0.62152 11.90625,-0.0408 1.289166,-0.38485 1.322916,-0.43796 1.322916,-2.08153 0,-0.92763 -0.144843,-1.77569 -0.321944,-1.88515 -0.526446,-0.32536 -0.04975,-6.51091 0.727604,-9.44025 l 0.721403,-2.71767 -1.00459,-1.41955 c -0.552465,-0.78074 -1.265407,-1.4233 -1.584399,-1.4273 z m 29.210623,52.20353 c -0.65296,0 -0.0384,0.7691 1.66346,2.08204 1.27507,0.98371 2.2615,2.14896 3.01274,3.55844 0.9401,1.76381 1.32385,2.15276 2.42569,2.45877 0.71996,0.19996 1.60241,0.36435 1.9606,0.36535 0.3582,0.001 1.50791,0.25116 2.55489,0.55552 1.04698,0.30437 3.53183,0.76265 5.52214,1.01854 6.87868,0.88441 16.98661,0.56918 21.61057,-0.67437 0.97014,-0.2609 2.48973,-0.5751 3.37705,-0.69815 1.08294,-0.15019 2.19898,-0.6638 3.39463,-1.56218 0.97966,-0.73611 2.99208,-1.87088 4.47207,-2.52129 1.47999,-0.65041 2.6908,-1.28108 2.6908,-1.40198 0,-0.1209 -0.54113,-0.74441 -1.20251,-1.38545 -1.16241,-1.12665 -1.24754,-1.15097 -2.55747,-0.72709 -0.74532,0.24118 -1.93973,0.73242 -2.6541,1.09141 -1.82191,0.91556 -7.57498,2.36726 -11.75381,2.96623 -6.8176,0.97719 -17.15881,0.48411 -22.56244,-1.07591 -0.97871,-0.28256 -2.6405,-0.67564 -3.6928,-0.87333 -1.05231,-0.19769 -3.28939,-0.9931 -4.97127,-1.76785 -1.68188,-0.77475 -3.16252,-1.4087 -3.29024,-1.4087 z m 3.61425,24.68842 -1.62833,1.53789 c -1.88439,1.78043 -1.8567,2.39167 0.1478,3.25613 4.10396,1.76987 13.09322,4.11494 17.21342,4.49016 5.19966,0.47353 12.01828,0.0694 16.93333,-1.00355 3.07059,-0.67032 5.82173,-1.55209 5.81773,-1.86449 -0.002,-0.12992 -0.48599,-1.07819 -1.0759,-2.10685 -0.78036,-1.36078 -1.23635,-1.82284 -1.67277,-1.69653 -1.87833,0.54362 -3.83824,0.93917 -7.30239,1.47329 -7.93998,1.22421 -19.62745,-0.19178 -26.43612,-3.2029 z m -4.04007,19.40863 c -0.26159,0 -0.89843,0.55432 -1.4149,1.23145 -1.49988,1.96645 -1.09685,2.62869 3.01584,4.95732 4.829,2.7342 10.23423,4.31443 17.81907,5.2095 1.6698,0.19705 9.39593,-0.13981 10.76006,-0.46922 0.6791,-0.16399 2.14927,-0.40681 3.2675,-0.5395 1.11822,-0.13269 2.12037,-0.38186 2.22674,-0.55397 0.10637,-0.17211 1.41397,-1.09823 2.90577,-2.05776 3.35306,-2.15672 7.09606,-5.82769 6.52466,-6.39909 -0.28769,-0.28769 -0.6598,-0.19595 -1.39681,0.3452 -1.41059,1.03572 -7.79459,3.46221 -9.86245,3.74861 -0.94898,0.13143 -3.05573,0.46222 -4.68188,0.73483 -1.62614,0.27262 -4.13753,0.49558 -5.58054,0.49558 -6.87484,0 -17.01804,-2.55295 -21.04368,-5.29632 -1.13523,-0.77363 -2.27778,-1.40663 -2.53938,-1.40663 z" /><path
           style="fill:#2d313a"
           d="m 188.98225,-448.11559 c -1.28355,-0.59624 -2.49503,-1.90882 -4.02932,-4.36558 -1.45727,-2.33343 -4.56985,-5.19856 -6.24991,-5.75303 -1.80661,-0.59623 -5.28856,-0.24499 -7.1906,0.72536 -0.86574,0.44167 -2.66105,1.56639 -3.98958,2.49938 -4.78263,3.35871 -7.91611,2.49043 -9.46957,-2.624 -2.37355,-7.81439 2.13336,-17.27479 10.25541,-21.527 3.66916,-1.92095 6.03583,-2.49023 10.26663,-2.46954 3.11466,0.0152 4.18004,0.17888 6.6943,1.02835 11.10511,3.75198 17.64621,15.43304 14.17405,25.31196 -1.90927,5.4322 -6.87719,8.83905 -10.46141,7.1741 z"
           id="path84" /><path
           style="fill:#2d313a"
           d="m 62.966394,-443.41157 c -4.28314,-2.17811 -7.196778,-8.61456 -6.653231,-14.69751 0.499324,-5.58804 2.553386,-9.89606 6.710883,-14.07485 3.310943,-3.3279 6.951319,-5.36157 11.348747,-6.33991 9.79437,-2.17904 20.588732,3.8683 23.966073,13.42654 0.383143,1.08434 0.681299,3.19095 0.773913,5.46806 0.185438,4.55938 -0.461287,6.73751 -2.389687,8.04832 -1.857173,1.26239 -3.74196,0.94778 -7.608764,-1.27003 -3.615087,-2.07345 -5.818178,-2.72335 -8.253943,-2.43487 -3.624277,0.42925 -6.142246,2.60327 -9.037742,7.80323 -0.949457,1.70511 -2.188037,3.42899 -2.7524,3.83085 -1.515207,1.07892 -4.243384,1.18627 -6.103849,0.24017 z"
           id="path85" /><path
           style="fill:#2d313a"
           d="m 97.822919,-376.71816 c -9.451509,-8.32855 -16.531578,-22.89174 -17.537787,-36.07395 -0.189286,-2.47982 -0.116727,-3.39107 0.371899,-4.67052 1.561567,-4.0889 4.375325,-4.0554 13.427999,0.15988 9.01804,4.19915 16.36562,6.90056 22.4426,8.25125 15.75163,3.501 28.67759,1.00102 46.38247,-8.97073 11.76121,-6.62415 13.20434,-7.17938 15.74226,-6.05674 2.72021,1.20328 3.47752,4.4627 2.75093,11.83987 -1.22819,12.46989 -6.65332,25.02614 -14.22526,32.92375 l -3.051,3.16239 -3.41948,-1.82391 c -3.50315,-1.86854 -4.26744,-5.04941 -7.68855,-7.07357 -2.56256,-1.51619 -7.67686,-3.30494 -9.27608,-3.30494 -1.31521,0 -2.51262,1.6365 -4.914,5.70371 -3.71955,6.29983 -6.4356,5.98596 -11.01215,-0.88784 -3.30979,-4.97116 -3.76863,-2.42069 -7.05297,-1.53827 -6.74932,1.81337 -9.73558,3.06468 -13.70933,9.47555 -0.81078,1.30803 -4.93981,2.20431 -5.18111,2.20597 -0.2413,0.002 -2.514303,-1.96827 -4.050441,-3.3219 z"
           id="path86"
           sodipodi:nodetypes="ssssssssscssssssscs" /><path
           style="fill:#2d313a"
           d="m 144.46712,-316.42792 c -1.84534,-0.68605 -1.87703,-3.11763 -0.0816,-6.2613 1.84765,-3.23512 5.94402,-5.34014 9.46072,-4.86163 4.55584,0.6199 8.50129,4.54775 8.50129,8.46337 0,1.6815 -0.30967,2.33431 -1.28284,2.70431 -1.23429,0.46927 -2.53887,-0.15455 -2.77875,-1.32873 -0.11041,-0.54044 -0.51741,-1.62644 -0.90443,-2.41332 -2.25614,-4.5871 -9.03615,-3.37432 -10.00492,1.78964 -0.31227,1.66455 -1.48867,2.43588 -2.90947,1.90766 z"
           id="path87" /><path
           style="fill:#2d313a"
           d="m 97.668239,-316.77367 c -1.07442,-0.84514 -1.150378,-1.6047 -0.409843,-4.09835 0.665146,-2.23979 2.832104,-4.73925 5.032694,-5.8049 2.25089,-1.09001 5.93893,-1.13096 8.19811,-0.091 3.27079,1.50559 5.76943,5.17818 5.57417,8.19313 -0.0905,1.39813 -0.25125,1.70789 -1.09505,2.11063 -1.38585,0.66147 -2.55518,-0.1486 -3.09081,-2.14119 -0.53632,-1.99517 -2.63148,-3.99609 -4.51802,-4.31482 -2.81528,-0.47564 -5.55535,1.57483 -6.20353,4.64228 -0.4122,1.9507 -2.031999,2.64932 -3.487721,1.50425 z"
           id="path88" /><path
           style="fill:#2d313a"
           d="m 125.19212,-303.33739 c -5.0707,-1.62022 -8.40152,-5.95993 -6.23626,-8.12519 1.20108,-1.20107 2.49842,-0.91418 4.00241,0.88507 2.32614,2.78281 5.53991,3.83614 9.1047,2.98413 1.56752,-0.37464 2.2219,-0.7989 3.87571,-2.51275 2.18607,-2.26543 3.29583,-2.59725 4.53663,-1.35645 1.49582,1.49583 0.48098,4.0078 -2.50455,6.19939 -3.4317,2.5191 -8.52132,3.28613 -12.77864,1.9258 z"
           id="path89" /><path
           style="fill:#dd2728"
           d="m 126.01142,-364.24559 c -8.20374,-1.04356 -14.99462,-3.42592 -21.72925,-7.62298 l -2.85563,-1.77966 2.14306,-3.16633 c 4.021,-5.94094 9.86974,-10.55176 15.97448,-12.59336 4.4774,-1.49738 4.50724,-1.4826 8.15198,4.03841 2.56776,3.88962 3.49301,4.76703 5.2797,5.00667 1.18887,0.15946 1.56678,0.0305 2.62017,-0.89443 0.67701,-0.59442 2.25026,-2.77131 3.49612,-4.83753 2.77337,-4.59955 3.36121,-5.00024 6.24861,-4.25924 5.23148,1.34256 8.82775,3.29632 12.94269,7.03141 1.45403,1.31981 3.39151,3.44763 4.3055,4.72848 l 1.66181,2.32882 -1.21615,1.04419 c -2.20295,1.89146 -7.51693,5.26593 -10.38837,6.59677 -6.58902,3.05386 -11.75057,4.21337 -19.57917,4.39832 -3.20145,0.0756 -6.37645,0.0668 -7.05555,-0.0195 z"
           id="path90"
           sodipodi:nodetypes="sscssssssssscsssss" /></g></g></g></svg>
